<?xml version="1.0" encoding="UTF-8"?><svg class="svg-canvas" viewBox="0 0 1029 174" width="1029" height="174" preserveAspectRatio="none" version="1.1" xmlns="http://www.w3.org/2000/svg" xmlns:xlink="http://www.w3.org/1999/xlink">
        <!--滤镜-->
        <defs></defs>

        <!-- 背景 -->
        <g id="background">
            
            
          </g>

        <!--元素-->
        
                <g id="shape_NciKXVf9ff" ref="shape_NciKXVf9ff" key="shape_NciKXVf9ff" mask="">
                  <g transform="translate(10.284901124135043,2.5226231457201083) rotate(0,152.85025683028073,85.45799411426201) scale(1,1)" style="opacity: 1;mix-blend-mode: undefined;" filter="">
                    <!--普通元素-->
                    <rect fill="rgba(0,0,0,0)" width="325.70051366056146" height="190.91598822852401" x="-10" y="-10"></rect><svg version="1.1" id="QxlASasIll" xmlns="http://www.w3.org/2000/svg" xmlns:xlink="http://www.w3.org/1999/xlink" x="0px" y="0px" width="305.70051366056146" height="170.91598822852401" viewBox="0 0 345.2 193" enable-background="new 0 0 345.2 193" xml:space="preserve" class="style-removed" preserveAspectRatio="none" data-parent="shape_NciKXVf9ff">
<g>
	<linearGradient id="SVGID_1__zyLyYFGnAHwL" gradientUnits="userSpaceOnUse" x1="174.8777" y1="182.183" x2="140.5513" y2="5.8702">
		<stop offset="0" stop-color="#017AC9"></stop>
		<stop offset="0.3715" stop-color="#044498"></stop>
		<stop offset="0.4736" stop-color="#035784"></stop>
		<stop offset="0.6791" stop-color="#028750"></stop>
		<stop offset="0.9944" stop-color="#E8F01F"></stop>
	</linearGradient>
	<path fill="url(#SVGID_1__zyLyYFGnAHwL)" d="M276.5,183.2c35-7.5,54.5-33.2,54.5-33.2c-32.2,26.7-80.1,24.7-80.1,24.7
		c35.9-7.3,58.9-24.8,58.9-24.8s-29.5,25.2-157-6.1c-36.7-9-72.4,0-72.4,0s8.3-20.3,34.3-21.5c40.3-2,69.6-4.7,85.7-33
		s-23.3-54.5-31.7-65c-8.3-10.6-8.9,16.7-12.8,20.6c-3.9,3.9-12.2-27.9-23.3-36.7c-16.6-13-38.6,53.1-46.4,56.5
		c-7.8,3.3-2.3-16.2-6.4-20.1c-9.1-8.7-30.5,18.7-46.4,65.4c0,0,55.1-33.3,90.3-20.3c18,6.6,26.7,6.4,39.3,5.5
		c5.9-0.4,11.1-2,15.2-4.4c4.9-2.8,8.4-7.6,9.4-13.2c1-5-1.1-11.4-9-12.9c-3.5-0.7-11.7,1.1-11.6,9.1c0.1,8,8.6,8.3,8.6,8.3
		c-14.9,7.8-14.4-5.7-14.4-5.7c-10-10.6,3.1-13.5,3.1-13.5C175.2,43,189,61.8,189,61.8s8.6,0,8.6,7.4c-0.2,8.2-3,14.7-7.1,19.9
		c0.1,0,0.2-0.1,0.2-0.1c-22.6,32.2-78.2,14.4-117.1,30C7,145.8,0,176.2,0,176.2c74.8-30.7,93.5-13,164.6,5.3
		c129.5,33.4,180.6-16.9,180.6-16.9C312.4,181.6,276.5,183.2,276.5,183.2z" stroke-width="0"></path>
	<linearGradient id="SVGID_2__JHmbtCj5vHaP" gradientUnits="userSpaceOnUse" x1="82.7587" y1="24.7952" x2="82.7587" y2="0.6902">
		<stop offset="0" stop-color="#F7FC0C"></stop>
		<stop offset="0.956" stop-color="#F64B08"></stop>
		<stop offset="0.9944" stop-color="#F64408"></stop>
	</linearGradient>
	<circle fill="url(#SVGID_2__JHmbtCj5vHaP)" cx="82.8" cy="12.4" r="12.4" stroke-width="0"></circle>
</g>
</svg>
                  </g>
                </g>
                <g id="shape_AxbRygLsI6" ref="shape_AxbRygLsI6" key="shape_AxbRygLsI6" mask="">
                  <g transform="translate(-171.95675891982162,-332.56929372851744) rotate(0,772.5919168742374,402.0919168742374) scale(1,1)" style="opacity: 1;mix-blend-mode: undefined;" filter="">
                    <!--普通元素-->
                    <svg xmlns="http://www.w3.org/2000/svg" version="1.1" xmlns:xlink="http://www.w3.org/1999/xlink" width="1545.183833748475" height="804.1838337484749" viewBox="0 0 1545.183833748475 804.1838337484749" data-ligature="true" data-parent="shape_AxbRygLsI6"><g data-role="text" data-width="872.2758376144782" data-height="134" transform="translate(335.0919168742374, 335.0919168742374)"><path d="M53.39-64.12L53.39-64.12Q56.63-69.14 57.75-68.47Q58.87-67.80 59.26-67.02Q59.65-66.24 59.42-64.73Q59.20-63.22 58.08-61.55Q56.97-59.87 53.62-55.79Q50.27-51.72 49.32-46.30Q48.37-40.88 52.67-41.61Q56.97-42.33 60.32-44.96Q63.67-47.58 64.79-47.58Q65.90-47.58 65.90-46.47Q65.90-45.35 63.50-43.12Q61.10-40.88 55.68-37.87Q50.27-34.85 47.64-36.36Q45.02-37.87 43.90-41.94Q42.78-46.02 46.91-53.90Q51.05-61.77 53.39-64.12ZM77.85-68.47L77.85-68.47Q78.64-70.37 80.26-68.92Q81.88-67.47 81.04-64.28Q80.20-61.10 76.85-53.95Q73.50-46.80 74.22-42.33Q74.95-37.87 76.07-37.87Q77.18-37.87 79.81-38.26Q82.43-38.65 83.16-39.37Q83.89-40.10 85.00-40.10Q86.12-40.10 85.00-37.48Q83.89-34.85 78.80-33.73Q73.72-32.62 71.54-34.46Q69.37-36.30 68.92-45.29Q68.47-54.29 77.85-68.47Z" transform="translate(0 103) " fill="rgb(51, 51, 51)" stroke="rgb(51, 51, 51)" stroke-width="0.186" data-glyph-w="69.75167682539484" data-glyph-h="122.42320000000001" data-glyph-ascender="97.4024" data-glyph-descender="-25.0208" data-kerning="0"></path><path d="M82.32-60.09L82.32-60.09Q84.11-61.66 85.45-61.77Q86.79-61.88 89.92-61.10L89.92-61.10Q92.71-60.21 93.94-58.92Q95.17-57.64 95.06-55.40L95.06-55.40Q94.83-50.27 96.17-21.33L96.17-21.33Q96.40-16.42 96.96-7.15L96.96-7.15Q97.40-1.01 97.23 0.95Q97.07 2.90 96.17 4.69L96.17 4.69Q94.72 7.37 93.38 7.60L93.38 7.60Q92.49 7.71 89.97 4.69Q87.46 1.68 87.46 0.45L87.46 0.45Q87.46-1.01 85.84-1.06Q84.22-1.12 79.31 0.11L79.31 0.11Q75.17 1.23 73.67 1.34Q72.16 1.45 70.48 0.78L70.48 0.78Q64.79-1.45 65.12-12.96L65.12-12.96Q65.34-22.79 65.23-33.45Q65.12-44.12 64.79-45.13L64.79-45.13Q64.45-46.58 65.23-46.58Q66.01-46.58 68.70-42.73Q71.38-38.87 71.38-37.87L71.38-37.87Q71.38-36.75 73.44-36.64Q75.51-36.53 77.52-37.75L77.52-37.75Q79.31-38.87 82.43-38.87L82.43-38.87Q86.12-38.98 86.79-40.10Q87.46-41.22 87.01-46.47L87.01-46.47Q86.34-52.61 85.79-52.61Q85.23-52.61 80.48-49.59Q75.73-46.58 74.62-46.58L74.62-46.58Q73.28-46.58 71.15-48.70Q69.03-50.82 69.03-52.16L69.03-52.16Q69.03-53.39 70.71-53.39L70.71-53.39Q72.05-53.39 75.68-55.51Q79.31-57.64 82.32-60.09ZM85.90-34.29L85.90-34.29Q85.34-34.18 75.40-33.06L75.40-33.06L70.48-32.62L70.71-27.81Q71.15-23.01 71.60-22.45Q72.05-21.89 75.29-22.79Q78.53-23.68 81.99-24.13L81.99-24.13Q87.46-24.57 88.19-25.24Q88.91-25.91 88.58-29.27L88.58-29.27Q88.02-33.29 87.13-33.85Q86.23-34.40 85.90-34.29ZM73.28-17.98L73.28-17.98Q71.71-19.10 71.15-18.99Q70.59-18.88 70.59-17.31L70.59-17.31Q70.59-15.08 71.38-14.52Q72.16-13.96 73.28-15.30L73.28-15.30Q74.50-16.53 74.50-16.87Q74.50-17.20 73.28-17.98ZM89.70-8.82L89.25-13.29Q88.69-17.98 88.24-18.43Q87.80-18.88 79.31-17.09L79.31-17.09Q77.41-16.64 74.00-13.40Q70.59-10.16 70.59-8.71L70.59-8.71Q70.59-6.81 71.15-6.81L71.15-6.81Q71.93-6.81 75.01-7.82Q78.08-8.82 78.53-9.16L78.53-9.16Q79.20-9.72 84.45-9.38L84.45-9.38L89.70-8.82ZM20.89-66.46L20.89-66.46Q20.89-68.58 21.45-68.64Q22.00-68.70 24.24-66.80L24.24-66.80Q26.36-64.79 26.81-61.88L26.81-61.88Q27.03-59.98 26.81-59.37Q26.58-58.75 25.36-58.42L25.36-58.42Q23.57-57.75 21.45-56.24Q19.32-54.73 18.93-55.07Q18.54-55.40 19.72-59.82Q20.89-64.23 20.89-66.46ZM42.00-71.15L42.00-71.15Q42.00-73.28 42.28-73.67Q42.56-74.06 44.68-74.06L44.68-74.06Q48.59-74.06 50.77-70.65Q52.95-67.24 52.95-61.10L52.95-61.10Q52.95-56.74 53.78-55.85Q54.62-54.96 60.32-52.72L60.32-52.72Q61.88-52.16 63.05-50.94Q64.23-49.71 63.56-49.26L63.56-49.26Q63.22-49.04 60.60-47.25Q57.97-45.46 54.29-42.33L54.29-42.33Q51.49-39.88 50.94-38.20Q50.38-36.53 51.61-33.96L51.61-33.96L52.61-31.95L56.30-36.08Q60.09-39.99 61.16-42.11Q62.22-44.23 63.00-44.23L63.00-44.23Q64.34-44.23 63.45-42.89L63.45-42.89Q63.11-42.45 62.66-42.00L62.66-42.00Q61.44-41.11 60.99-38.42L60.99-38.42Q60.54-36.30 58.03-30.66Q55.51-25.02 52.72-20.11L52.72-20.11Q51.61-18.10 51.33-15.69Q51.05-13.29 51.05-4.80L51.05-4.80Q50.94 3.91 50.66 5.64Q50.38 7.37 49.37 7.60L49.37 7.60Q47.70 7.82 45.74 5.08Q43.79 2.35 43.23-0.78L43.23-0.78Q42.67-3.13 42.22-3.57Q41.78-4.02 39.99-4.02L39.99-4.02Q38.20-4.02 37.64-4.58Q37.08-5.14 36.30-7.26L36.30-7.26Q35.63-9.61 35.86-10.56Q36.08-11.51 37.75-14.07L37.75-14.07Q39.88-17.65 41.94-22.95Q44.01-28.26 43.79-29.94L43.79-29.94Q43.45-31.72 42.00-31.39L42.00-31.39Q33.73-30.27 33.73-29.38L33.73-29.38Q33.73-28.60 32.28-24.80L32.28-24.80Q30.83-20.66 29.71-16.36Q28.60-12.06 28.82-11.51L28.82-11.51Q29.27-11.06 27.48-4.75Q25.69 1.56 24.46 3.91L24.46 3.91Q23.46 5.92 21.61 5.81Q19.77 5.70 18.54 3.46L18.54 3.46Q17.43 1.23 15.75-1.12Q14.07-3.46 14.86-4.47L14.86-4.47Q15.41-5.36 15.19-16.36Q14.97-27.37 14.41-28.15L14.41-28.15Q14.07-28.71 14.74-29.60L14.74-29.60Q15.64-31.16 18.43-27.14L18.43-27.14Q20.78-23.90 21.11-21.11L21.11-21.11Q21.78-17.54 22.34-17.54L22.34-17.54Q23.35-17.54 25.41-22.23Q27.48-26.92 27.70-30.16L27.70-30.16L28.26-34.74L32.39-37.08Q38.20-40.21 40.60-42.33Q43.00-44.46 43.34-46.58L43.34-46.58Q43.79-49.37 43.45-57.92Q43.12-66.46 42.56-67.36L42.56-67.36Q42.00-68.25 42.00-71.15Z" transform="translate(69.75167682539484 103) " fill="rgb(51, 51, 51)" stroke="rgb(51, 51, 51)" stroke-width="0.186" data-glyph-w="88.74067682539483" data-glyph-h="122.42320000000001" data-glyph-ascender="97.4024" data-glyph-descender="-25.0208" data-kerning="0"></path><path d="M45.91-3.46L52.39-6.48Q54.29-7.37 54.96-7.37L54.96-7.37Q55.85-7.37 58.75-5.98Q61.66-4.58 62.78-3.46L62.78-3.46L64.45-1.90L67.69-3.91Q70.71-5.81 72.16-5.81Q73.61-5.81 74.50-6.76Q75.40-7.71 76.24-6.81Q77.07-5.92 74.84-4.80L74.84-4.80Q71.93-3.35 67.69 0.67Q63.45 4.69 62.94 6.42Q62.44 8.15 61.60 8.60Q60.76 9.05 59.70 8.21Q58.64 7.37 57.75 5.47L57.75 5.47Q56.19 2.12 56.19 0.39Q56.19-1.34 55.18-1.34L55.18-1.34Q54.29-1.34 49.82 0.95Q45.35 3.24 44.01 4.47L44.01 4.47Q42.11 6.14 36.86 8.55Q31.61 10.95 31.05 10.50L31.05 10.50Q30.27 9.83 29.77 5.81Q29.27 1.79 30.21 1.79Q31.16 1.79 34.85-1.68L34.85-1.68Q39.99-6.59 40.88-4.02L40.88-4.02Q41.11-3.69 41.11-3.24L41.11-3.24L41.33-1.45L45.91-3.46ZM82.66-7.60L82.66-7.60Q84.11-9.05 90.14-5.47L90.14-5.47Q94.83-2.57 95.89-1.45Q96.96-0.34 96.17 1.34L96.17 1.34Q95.06 3.69 91.71 5.03Q88.35 6.37 83.66 6.37L83.66 6.37Q78.41 6.37 78.41 5.75Q78.41 5.14 81.09 2.57L81.09 2.57Q84.11-0.34 84.67-2.12Q85.23-3.91 83.89-5.47L83.89-5.47Q82.21-7.15 82.66-7.60ZM58.31-76.96L58.31-76.96Q59.42-76.96 59.70-74.78Q59.98-72.61 59.31-68.92L59.31-68.92Q58.53-64.56 58.92-63.89Q59.31-63.22 61.77-64.00L61.77-64.00Q64.00-64.67 68.14-64.67Q72.27-64.67 73.95-64.00L73.95-64.00Q75.73-63.33 79.42-59.65L79.42-59.65Q85.00-53.95 79.31-53.95L79.31-53.95Q75.40-53.95 70.04-51.61Q64.67-49.26 64.67-47.47L64.67-47.47Q64.67-46.47 67.30-44.74Q69.92-43.00 69.92-42.06Q69.92-41.11 65.23-36.30L65.23-36.30Q56.19-27.14 56.19-25.58L56.19-25.58Q56.19-23.90 59.31-25.91L59.31-25.91Q60.09-26.36 60.88-27.03L60.88-27.03L63.11-28.93L66.80-27.37Q69.03-26.36 69.76-25.75Q70.48-25.13 70.59-23.57L70.59-23.57Q70.82-21.11 69.53-21.11Q68.25-21.11 65.90-19.99Q63.56-18.88 60.09-17.76Q56.63-16.64 50.88-14.24Q45.13-11.84 43.23-12.18L43.23-12.18Q42.00-12.29 41.66-12.90Q41.33-13.52 41.33-16.20L41.33-16.20Q41.33-18.88 41.66-19.49Q42.00-20.11 43.67-20.22L43.67-20.22Q45.91-20.55 47.36-21.89L47.36-21.89Q48.92-23.12 51.49-27.14Q54.06-31.16 53.67-31.56Q53.28-31.95 51.05-30.72L51.05-30.72Q48.59-29.49 47.81-29.66Q47.03-29.82 45.80-31.95L45.80-31.95Q44.46-34.07 44.07-34.01Q43.67-33.96 37.42-26.92L37.42-26.92Q30.94-19.21 24.74-15.30Q18.54-11.39 16.64-13.63L16.64-13.63Q15.64-14.97 15.25-19.27Q14.86-23.57 15.64-26.25L15.64-26.25Q17.09-31.28 25.30-40.44Q33.51-49.59 40.21-53.50L40.21-53.50Q45.13-56.30 46.30-57.08Q47.47-57.86 49.71-59.31L49.71-59.31Q51.83-60.54 54.06-64.90Q56.30-69.25 56.80-73.11Q57.30-76.96 58.31-76.96ZM69.92-58.42L69.92-58.42Q69.92-58.98 68.25-59.26Q66.57-59.54 65.01-58.98L65.01-58.98Q64.34-58.75 59.87-57.75L59.87-57.75Q56.19-56.97 55.18-55.79Q54.17-54.62 51.61-48.48L51.61-48.48Q48.59-40.99 49.71-40.99L49.71-40.99Q50.04-40.99 55.63-45.18Q61.21-49.37 64.23-51.94L64.23-51.94Q68.25-55.51 69.09-56.41Q69.92-57.30 69.92-58.42ZM47.03-51.05L47.03-51.05Q47.25-51.72 46.36-51.72L46.36-51.72Q45.02-51.61 42.45-50.04L42.45-50.04Q34.63-45.57 28.43-40.04Q22.23-34.52 19.21-29.49L19.21-29.49Q15.97-23.79 17.65-21.11L17.65-21.11Q18.54-19.55 20.66-20.33L20.66-20.33Q24.35-21.78 34.63-33.79Q44.90-45.80 47.03-51.05Z" transform="translate(158.49235365078965 103) " fill="rgb(51, 51, 51)" stroke="rgb(51, 51, 51)" stroke-width="0.186" data-glyph-w="88.74067682539483" data-glyph-h="122.42320000000001" data-glyph-ascender="97.4024" data-glyph-descender="-25.0208" data-kerning="0"></path><path d="M68.14-27.81L68.14-27.81Q68.70-28.82 69.76-28.87Q70.82-28.93 75.17-28.26L75.17-28.26Q78.97-27.48 80.31-26.70Q81.65-25.91 81.65-24.35L81.65-24.35Q81.65-23.23 80.93-22.84Q80.20-22.45 75.51-21.45L75.51-21.45Q70.04-20.11 65.90-18.37Q61.77-16.64 61.77-15.53L61.77-15.53Q61.77-14.52 64.84-11.73Q67.91-8.94 67.86-7.71Q67.80-6.48 65.34-1.45L65.34-1.45Q63.67 1.90 62.61 3.02Q61.55 4.13 58.75 5.58L58.75 5.58Q53.84 7.93 53.84 7.26L53.84 7.26Q53.84 6.81 55.07 5.14L55.07 5.14Q57.97 1.56 58.59-3.41Q59.20-8.38 57.64-12.40L57.64-12.40Q56.74-14.30 56.19-14.63Q55.63-14.97 53.17-14.74L53.17-14.74Q51.05-14.52 50.21-14.74Q49.37-14.97 48.59-16.08L48.59-16.08Q45.35-20.66 49.93-20.66L49.93-20.66Q52.28-20.66 59.87-23.68Q67.47-26.70 68.14-27.81ZM62.78-72.05L62.78-72.05Q63.00-74.50 63.56-74.73Q64.12-74.95 66.80-73.78Q69.48-72.61 69.87-70.43Q70.26-68.25 68.36-63.11L68.36-63.11Q66.46-57.64 66.46-57.19Q66.46-56.74 70.04-54.62Q73.61-52.50 82.10-46.24L82.10-46.24Q96.62-35.41 103.32-32.50L103.32-32.50Q108.57-30.16 108.46-28.26L108.46-28.26Q108.24-26.36 103.10-27.03L103.10-27.03Q96.51-27.70 91.54-30.72Q86.57-33.73 77.07-42.78L77.07-42.78Q70.71-48.92 69.31-49.32Q67.91-49.71 67.91-50.38Q67.91-51.05 65.68-51.94L65.68-51.94Q64.00-52.61 63.28-52.44Q62.55-52.28 60.88-50.71L60.88-50.71Q58.20-48.14 55.46-44.51Q52.72-40.88 53.06-40.44L53.06-40.44Q53.39-39.77 56.30-39.77L56.30-39.77Q59.09-39.77 63.11-37.64Q67.13-35.52 67.69-33.85L67.69-33.85Q68.14-32.06 67.69-31.05L67.69-31.05Q67.47-30.27 62.27-28.87Q57.08-27.48 56.52-27.93L56.52-27.93Q56.30-28.26 57.53-29.71L57.53-29.71Q59.65-31.95 58.25-33.96Q56.86-35.97 52.72-36.97L52.72-36.97Q51.27-37.31 50.49-36.69Q49.71-36.08 47.70-33.06L47.70-33.06Q44.79-28.60 40.66-24.69Q36.53-20.78 36.97-19.88L36.97-19.88Q37.42-19.10 39.15-19.10Q40.88-19.10 41.78-19.88L41.78-19.88Q42.11-20.33 42.22-18.10L42.22-18.10Q42.56-11.17 40.99-6.14L40.99-6.14Q40.88-5.81 40.77-5.58L40.77-5.58Q39.88-3.24 40.21-1.23L40.21-1.23Q40.44 0 40.21 0.39Q39.99 0.78 38.76 0.78L38.76 0.78Q36.97 0.78 34.91-1.17Q32.84-3.13 31.67-2.68Q30.49-2.23 30.49 0.34L30.49 0.34Q30.49 3.69 28.60 4.19Q26.70 4.69 24.13 2.23L24.13 2.23Q22.56 0.56 20.72 0.73Q18.88 0.89 17.98 2.90L17.98 2.90Q15.53 7.71 10.39 8.27L10.39 8.27Q7.15 8.60 5.25 7.04L5.25 7.04L3.35 5.47L6.03 5.47Q8.71 5.47 13.63 2.01L13.63 2.01Q16.76-0.22 18.32-0.84Q19.88-1.45 22.00-1.45L22.00-1.45Q24.46-1.45 25.24-1.90Q26.03-2.35 27.25-4.24L27.25-4.24Q29.04-7.04 28.65-7.60Q28.26-8.15 25.47-6.81L25.47-6.81Q17.98-3.02 14.41-5.47L14.41-5.47Q11.17-7.71 15.08-12.29L15.08-12.29Q15.53-13.07 16.20-13.74L16.20-13.74Q19.66-17.09 19.27-18.10Q18.88-19.10 17.98-18.99Q17.09-18.88 15.19-17.43L15.19-17.43Q13.74-16.42 12.96-16.25Q12.18-16.08 10.95-16.64L10.95-16.64Q9.16-17.54 9.16-19.77L9.16-19.77Q9.16-21.89 10.39-23.12Q11.62-24.35 13.63-24.35L13.63-24.35Q17.98-24.35 21.45-27.37L21.45-27.37Q22.45-28.26 22.84-31.00Q23.23-33.73 22.45-34.52L22.45-34.52Q22.00-35.07 17.82-33.90Q13.63-32.73 12.06-33.17L12.06-33.17Q11.28-33.51 10.72-34.18Q10.16-34.85 10.11-35.52Q10.05-36.19 10.50-36.41L10.50-36.41Q12.51-37.08 9.61-41.33L9.61-41.33Q7.71-44.01 7.37-48.48L7.37-48.48Q7.04-51.16 6.53-52.39Q6.03-53.62 4.80-54.84L4.80-54.84Q2.57-56.63 3.52-57.08Q4.47-57.53 5.47-58.36Q6.48-59.20 8.71-60.21Q10.95-61.21 18.21-65.34Q25.47-69.48 28.15-70.37Q30.83-71.26 32.45-72.05Q34.07-72.83 38.48-71.60Q42.89-70.37 43.34-69.92L43.34-69.92Q43.67-69.59 44.40-66.52Q45.13-63.45 45.13-61.99L45.13-61.99Q45.13-60.21 43.06-56.30Q40.99-52.39 40.44-49.04L40.44-49.04Q40.21-46.58 39.49-45.74Q38.76-44.90 35.74-43.34L35.74-43.34Q32.28-41.55 30.94-39.60Q29.60-37.64 29.82-34.63L29.82-34.63Q30.05-33.06 30.55-32.67Q31.05-32.28 33.29-32.17L33.29-32.17Q36.64-31.95 37.53-30.77Q38.42-29.60 36.97-27.03L36.97-27.03Q35.63-24.46 33.79-22.79Q31.95-21.11 31.95-20.55L31.95-20.55Q31.95-19.21 33.73-20.11L33.73-20.11Q34.85-20.66 35.41-21.56L35.41-21.56Q37.42-24.35 41.22-30.44Q45.02-36.53 46.58-39.54L46.58-39.54L52.39-50.04Q62.66-68.03 62.78-72.05ZM37.31-64.67L37.31-64.67Q37.08-65.46 36.25-65.79Q35.41-66.13 33.17-66.24L33.17-66.24Q30.05-66.35 28.71-65.96Q27.37-65.57 24.91-63.89L24.91-63.89Q18.99-59.76 29.60-58.75L29.60-58.75Q30.49-58.75 31.50-58.64L31.50-58.64L36.64-58.42L36.97-60.88Q37.53-63.33 37.31-64.67ZM21.45-59.09L21.45-59.09Q19.99-60.32 19.10-60.21Q18.21-60.09 15.41-57.97L15.41-57.97Q12.73-56.07 12.34-55.07Q11.95-54.06 13.07-52.39L13.07-52.39Q13.85-51.38 14.47-51.27Q15.08-51.16 16.87-51.83L16.87-51.83Q18.99-52.72 20.94-54.34Q22.90-55.96 22.90-56.86L22.90-56.86Q22.90-57.86 21.45-59.09ZM35.07-55.29L35.07-55.29Q35.07-56.19 34.63-56.35Q34.18-56.52 32.84-55.96L32.84-55.96Q32.39-55.74 32.11-54.57Q31.83-53.39 32.06-52.28Q32.28-51.16 32.73-51.16L32.73-51.16Q33.40-51.16 34.24-52.67Q35.07-54.17 35.07-55.29ZM23.46-46.02L23.46-46.02Q23.23-48.59 22.68-48.98Q22.12-49.37 19.04-49.09Q15.97-48.81 15.58-47.81Q15.19-46.80 16.76-43.90L16.76-43.90Q18.21-41.11 19.04-40.71Q19.88-40.32 22.00-41.66L22.00-41.66Q23.01-42.45 23.35-43.28Q23.68-44.12 23.46-46.02ZM38.20-13.07L38.20-13.07Q38.20-16.08 33.40-11.39L33.40-11.39Q28.82-6.93 32.73-6.93L32.73-6.93Q34.07-6.93 36.13-9.22Q38.20-11.51 38.20-13.07ZM21.11-11.73L21.11-11.73Q21.33-11.95 20.78-12.06L20.78-12.06Q20.55-12.18 19.99-12.18L19.99-12.18Q18.65-12.06 19.60-11.67Q20.55-11.28 21.11-11.73Z" transform="translate(247.23303047618447 103) " fill="rgb(51, 51, 51)" stroke="rgb(51, 51, 51)" stroke-width="0.186" data-glyph-w="88.74067682539483" data-glyph-h="122.42320000000001" data-glyph-ascender="97.4024" data-glyph-descender="-25.0208" data-kerning="0"></path><path d="M59.76-70.59L59.76-70.59Q63.11-77.30 63.56-77.52L63.56-77.52Q64.34-77.63 65.46-75.90Q66.57-74.17 66.57-72.72L66.57-72.72Q66.57-71.15 64.28-65.96Q61.99-60.76 60.09-57.97L60.09-57.97Q58.87-56.41 59.03-55.85Q59.20-55.29 60.88-55.29L60.88-55.29Q64.56-55.29 67.52-52.95Q70.48-50.60 70.48-47.70L70.48-47.70Q70.48-44.68 75.84-41.89L75.84-41.89Q78.08-40.77 78.53-38.76L78.53-38.76Q79.08-36.86 78.64-30.89Q78.19-24.91 77.52-23.57L77.52-23.57Q76.74-22.00 75.40-18.65L75.40-18.65Q73.28-13.52 68.03-7.54Q62.78-1.56 57.19 2.01L57.19 2.01Q54.17 4.13 48.98 6.14Q43.79 8.15 41.55 8.15L41.55 8.15Q39.54 8.15 36.53 9.72L36.53 9.72Q32.95 11.62 32.95 10.95L32.95 10.95Q32.95 10.16 37.31 7.04L37.31 7.04Q44.34 2.01 53.95-7.93Q63.56-17.87 63.56-20.22L63.56-20.22Q63.56-21.11 60.71-20.44Q57.86-19.77 51.61-19.77L51.61-19.77Q47.14-19.77 45.85-20.11Q44.57-20.44 43.00-22.12L43.00-22.12Q41.22-23.90 40.77-25.52Q40.32-27.14 40.99-29.71L40.99-29.71Q41.55-31.83 42.50-32.50Q43.45-33.17 45.69-32.62L45.69-32.62Q47.36-32.39 48.37-32.84Q49.37-33.29 51.72-35.52L51.72-35.52Q55.07-38.54 58.20-42.39Q61.32-46.24 61.32-47.25L61.32-47.25Q61.32-50.38 51.27-45.35L51.27-45.35Q45.02-42.11 42.06-42.33Q39.10-42.56 39.10-46.24L39.10-46.24Q39.10-48.70 39.77-49.71Q40.44-50.71 42.00-50.71L42.00-50.71Q43.90-50.71 50.15-57.19L50.15-57.19Q53.84-60.99 55.79-63.67Q57.75-66.35 59.76-70.59ZM69.14-36.64L69.14-36.64Q68.81-37.75 68.08-37.75Q67.36-37.75 66.24-35.46Q65.12-33.17 65.12-31.72L65.12-31.72Q65.12-29.94 66.68-29.04L66.68-29.04Q67.36-28.71 67.69-29.04L67.69-29.04Q68.25-30.16 68.86-33.01Q69.48-35.86 69.14-36.64Z" transform="translate(335.9737073015793 103) " fill="rgb(51, 51, 51)" stroke="rgb(51, 51, 51)" stroke-width="0.186" data-glyph-w="88.74067682539483" data-glyph-h="122.42320000000001" data-glyph-ascender="97.4024" data-glyph-descender="-25.0208" data-kerning="0"></path><path d="M10.95-68.92L10.95-68.92Q17.31-65.12 15.25-61.04Q13.18-56.97 10.95-53.56Q8.71-50.15 7.60-46.47Q6.48-42.78 5.75-42.78Q5.03-42.78 5.75-47.64Q6.48-52.50 7.60-56.58Q8.71-60.65 8.38-61.38Q8.04-62.11 7.60-63.61Q7.15-65.12 7.15-65.51Q7.15-65.90 7.93-67.02Q8.71-68.14 10.95-68.92ZM28.15-68.92L28.15-68.92Q35.63-67.36 34.91-61.04Q34.18-54.73 31.16-50.43Q28.15-46.13 27.42-43.67Q26.70-41.22 25.52-41.22Q24.35-41.22 24.35-42.73Q24.35-44.23 26.64-52.11Q28.93-59.98 28.54-61.49Q28.15-63.00 27.42-65.18Q26.70-67.36 28.15-68.92Z" transform="translate(424.7143841269741 103) " fill="rgb(51, 51, 51)" stroke="rgb(51, 51, 51)" stroke-width="0.186" data-glyph-w="69.63997682539483" data-glyph-h="122.42320000000001" data-glyph-ascender="97.4024" data-glyph-descender="-25.0208" data-kerning="0"></path><path d="M22.23-35.30L22.23-35.30Q27.59-37.75 31.61-37.64L31.61-37.64Q34.85-37.53 35.35-37.20Q35.86-36.86 35.86-35.19L35.86-35.19Q35.86-33.73 35.24-33.01Q34.63-32.28 32.28-30.94L32.28-30.94Q28.60-29.04 26.25-25.02L26.25-25.02Q23.90-21.22 23.46-21.22L23.46-21.22Q22.79-21.33 24.24-24.91L24.24-24.91L25.58-28.60L22.79-29.15Q19.21-29.82 17.98-30.66Q16.76-31.50 17.87-32.56Q18.99-33.62 22.23-35.30ZM56.74-71.93L60.76-72.27Q66.91-72.94 69.20-71.49Q71.49-70.04 71.49-65.68L71.49-65.68Q71.49-63.45 71.77-62.94Q72.05-62.44 72.94-62.78L72.94-62.78Q74.39-63.67 79.42-63.50Q84.45-63.33 85.56-62.44L85.56-62.44Q86.79-61.44 86.79-59.20L86.79-59.20Q86.79-57.97 86.40-57.36Q86.01-56.74 84.67-56.52L84.67-56.52Q82.43-55.96 79.20-54.06Q75.96-52.16 74.73-50.38L74.73-50.38Q73.05-48.25 73.05-46.24L73.05-46.24Q73.05-44.57 74.00-43.95Q74.95-43.34 77.30-43.34L77.30-43.34Q79.87-43.34 83.38-41.83Q86.90-40.32 87.57-39.10L87.57-39.10Q88.47-37.42 87.96-35.69Q87.46-33.96 86.01-33.40L86.01-33.40Q83.78-32.62 79.42-28.60Q75.06-24.57 73.83-22.12L73.83-22.12Q71.60-18.21 73.00-16.76Q74.39-15.30 79.08-16.76L79.08-16.76Q82.77-17.87 86.90-17.43L86.90-17.43Q90.92-17.09 92.71-15.92Q94.50-14.74 94.50-12.62L94.50-12.62Q94.50-11.17 93.88-10.67Q93.27-10.16 91.26-9.61L91.26-9.61Q77.41-5.81 72.16-5.81L72.16-5.81L69.25-5.81L69.03-0.67Q68.92 2.79 68.53 3.80Q68.14 4.80 66.91 5.36L66.91 5.36Q64.90 6.37 63.33 5.36L63.33 5.36Q61.99 4.47 60.93 1.45Q59.87-1.56 59.87-4.64Q59.87-7.71 60.32-29.04L60.32-29.04Q60.99-63.11 59.31-63.11L59.31-63.11Q58.64-63.11 56.19-56.07Q53.73-49.04 52.72-43.90L52.72-43.90Q51.49-38.31 50.54-37.20Q49.59-36.08 49.93-21.89L49.93-21.89Q50.04-7.93 48.98-4.80Q47.92-1.68 43.56-2.79L43.56-2.79Q40.77-3.57 40.10-5.70L40.10-5.70Q37.31-13.40 35.86-13.40L35.86-13.40Q35.07-13.40 32.84-11.06L32.84-11.06Q31.05-9.16 27.14-6.70Q23.23-4.24 21.89-4.24L21.89-4.24Q20.78-4.24 18.99-5.92L18.99-5.92Q17.31-7.48 17.20-10.11Q17.09-12.73 18.77-15.08L18.77-15.08Q21.00-18.10 21.33-16.98L21.33-16.98Q21.33-16.53 21.22-15.64L21.22-15.64Q20.11-11.39 29.49-22.00L29.49-22.00L36.19-29.27Q37.20-30.49 37.53-32.73Q37.87-34.96 37.64-40.21L37.64-40.21L37.42-46.58L31.50-46.36Q27.81-46.24 26.25-46.52Q24.69-46.80 23.01-47.81L23.01-47.81Q21.00-49.04 20.22-51.38Q19.44-53.73 20.78-54.73L20.78-54.73Q21.67-55.63 28.99-56.02Q36.30-56.41 36.30-56.74L36.30-56.74Q36.30-58.08 34.57-60.43Q32.84-62.78 31.05-64.12L31.05-64.12Q25.58-67.69 29.49-68.25L29.49-68.25Q31.50-68.47 35.52-67.69L35.52-67.69Q39.99-66.80 42.33-65.23Q44.68-63.67 46.36-60.65L46.36-60.65Q49.37-54.29 50.27-54.73L50.27-54.73Q51.16-56.19 53.11-60.76Q55.07-65.34 55.63-67.80L55.63-67.80L56.74-71.93ZM73.28-57.53L73.28-57.53Q71.71-58.53 71.38-58.25Q71.04-57.97 70.82-54.96L70.82-54.96Q70.71-52.05 71.04-52.05L71.04-52.05Q71.38-51.94 71.82-52.39L71.82-52.39Q73.05-53.39 73.95-54.90Q74.84-56.41 73.28-57.53ZM75.73-31.39L75.73-31.39Q76.96-33.17 77.07-33.62Q77.18-34.07 76.07-34.29L76.07-34.29Q74.73-34.74 73.83-34.07L73.83-34.07Q73.16-33.73 72.77-32.00Q72.38-30.27 72.38-28.76Q72.38-27.25 72.94-27.25L72.94-27.25Q73.83-27.25 73.83-28.04Q73.83-28.82 75.73-31.39Z" transform="translate(494.3543609523689 103) " fill="rgb(51, 51, 51)" stroke="rgb(51, 51, 51)" stroke-width="0.186" data-glyph-w="88.74067682539483" data-glyph-h="122.42320000000001" data-glyph-ascender="97.4024" data-glyph-descender="-25.0208" data-kerning="0"></path><path d="M18.21-58.08L18.21-58.08Q17.54-59.76 18.65-59.31L18.65-59.31Q19.66-58.98 22.23-56.52L22.23-56.52Q26.14-52.95 26.25-49.93L26.25-49.93Q26.25-48.70 25.02-48.70L25.02-48.70Q23.68-48.70 21.22-49.59L21.22-49.59Q19.66-50.15 19.27-50.82Q18.88-51.49 18.88-53.62L18.88-53.62Q18.88-56.74 18.21-58.08ZM48.70-76.96L48.70-76.96Q49.59-76.96 51.83-75.73Q54.06-74.50 55.51-73.39L55.51-73.39L57.53-71.49L60.43-73.28Q63.78-75.29 68.30-74.56Q72.83-73.83 72.83-71.26L72.83-71.26Q72.83-70.37 69.03-66.68Q65.23-63.00 65.23-60.60Q65.23-58.20 63.00-56.52L63.00-56.52Q58.75-53.28 62.89-53.17L62.89-53.17Q64.79-53.17 67.13-51.83Q69.48-50.49 69.48-49.43Q69.48-48.37 65.68-45.91Q61.88-43.45 56.63-37.53L56.63-37.53Q50.71-30.72 51.61-30.49L51.61-30.49Q52.39-30.16 58.20-34.07L58.20-34.07Q66.35-39.54 70.26-36.86L70.26-36.86Q71.60-36.08 71.82-35.07Q72.05-34.07 72.05-30.83L72.05-30.83Q72.05-27.93 71.60-26.08Q71.15-24.24 69.81-21.45L69.81-21.45Q67.47-16.98 65.79-15.64L65.79-15.64Q64.23-14.52 64.84-13.68Q65.46-12.85 68.47-11.62L68.47-11.62Q75.17-9.16 74.06-1.68L74.06-1.68Q73.61 0.67 73.89 1.17Q74.17 1.68 75.73 2.12L75.73 2.12Q77.85 2.68 88.02 2.57L88.02 2.57Q97.63 2.46 97.74 3.46L97.74 3.46Q97.85 4.13 95.17 5.92L95.17 5.92Q94.39 6.37 93.05 7.26L93.05 7.26Q90.03 9.16 88.24 9.77Q86.46 10.39 83.55 10.50L83.55 10.50Q79.53 10.72 70.93 9.10Q62.33 7.48 59.54 6.03L59.54 6.03Q57.19 4.91 52.61 4.75Q48.03 4.58 45.74 4.08Q43.45 3.57 41.22 4.24Q38.98 4.91 35.13 5.25Q31.28 5.58 26.47 6.81L26.47 6.81Q23.01 7.71 22.12 7.71Q21.22 7.71 20.22 6.81L20.22 6.81Q18.77 5.47 18.65 2.62Q18.54-0.22 19.77-1.34L19.77-1.34Q20.78-2.12 22.00-5.70L22.00-5.70L23.12-9.27L21.00-12.06Q19.55-13.85 19.10-15.19Q18.65-16.53 18.65-18.99L18.65-18.99Q18.65-21.56 18.21-22.79Q17.76-24.02 16.31-25.69L16.31-25.69Q12.73-29.60 14.63-29.60L14.63-29.60Q15.41-29.60 16.25-28.54Q17.09-27.48 18.93-26.98Q20.78-26.47 22.45-24.13L22.45-24.13Q23.68-22.68 23.79-21.73Q23.90-20.78 23.35-19.10L23.35-19.10Q22.79-17.20 23.07-16.36Q23.35-15.53 25.47-13.63L25.47-13.63Q28.26-11.06 28.87-8.82Q29.49-6.59 28.26-3.57L28.26-3.57Q27.03-0.56 27.03 0L27.03 0Q27.48 0.22 30.44 0.11Q33.40 0 37.20-0.50Q40.99-1.01 41.78-1.56L41.78-1.56Q44.57-3.13 47.58-6.59Q50.60-10.05 51.94-13.18Q53.28-16.31 52.05-17.09L52.05-17.09Q51.49-17.54 49.99-15.02Q48.48-12.51 48.48-11.17L48.48-11.17Q48.48-9.49 46.69-9.44Q44.90-9.38 43.45-10.83L43.45-10.83Q41.55-12.73 41.55-13.68Q41.55-14.63 40.88-18.43L40.88-18.43Q40.44-20.66 40.60-21.67Q40.77-22.68 41.66-23.68L41.66-23.68Q43.00-25.24 43.00-26.19Q43.00-27.14 44.62-30.72Q46.24-34.29 45.85-34.68Q45.46-35.07 37.59-30.61Q29.71-26.14 26.47-26.14L26.47-26.14Q23.68-26.14 22.40-26.98Q21.11-27.81 21.73-28.93Q22.34-30.05 24.80-31.05L24.80-31.05Q27.81-32.17 36.86-37.75Q45.91-43.34 46.91-44.57L46.91-44.57Q47.70-45.46 45.91-45.57L45.91-45.57Q45.13-45.57 42.89-45.57L42.89-45.57Q38.20-45.80 36.75-46.69L36.75-46.69Q35.30-47.81 34.63-51.44Q33.96-55.07 34.63-57.64L34.63-57.64Q35.52-60.54 35.52-62.66L35.52-62.66Q35.52-64.45 36.02-64.67Q36.53-64.90 38.09-63.56L38.09-63.56Q39.77-62.33 41.61-62.55Q43.45-62.78 46.47-64.79L46.47-64.79Q49.26-66.57 49.71-67.24Q50.15-67.91 49.71-70.26L49.71-70.26Q49.26-73.50 48.81-75.23Q48.37-76.96 48.70-76.96ZM48.37-58.42L48.37-58.42Q49.04-59.87 48.37-59.98L48.37-59.98Q47.70-60.09 42.78-59.65L42.78-59.65Q40.66-59.31 40.32-58.98Q39.99-58.64 40.21-56.19L40.21-56.19Q40.32-53.06 41.66-52.72L41.66-52.72Q42.33-52.39 42.67-53.62L42.67-53.62Q42.78-53.73 42.78-53.84L42.78-53.84Q43.23-55.29 45.41-56.13Q47.58-56.97 48.37-58.42ZM64.45-28.37L64.45-28.37Q64.45-30.38 61.77-28.26L61.77-28.26Q61.32-28.04 60.76-27.48L60.76-27.48Q59.09-26.14 58.70-25.36Q58.31-24.57 58.64-23.23L58.64-23.23Q58.87-22.23 59.26-21.84Q59.65-21.45 60.32-21.56L60.32-21.56Q61.21-22.00 62.83-24.63Q64.45-27.25 64.45-28.37ZM61.66-8.38L61.66-8.38Q60.32-10.28 59.82-10.33Q59.31-10.39 58.42-8.71L58.42-8.71Q57.53-7.04 53.78-4.58Q50.04-2.12 50.04-1.45L50.04-1.45Q50.04-0.78 56.80 0.22Q63.56 1.23 64.79 0.78L64.79 0.78Q65.68 0.45 65.62-0.17Q65.57-0.78 64.67-3.02L64.67-3.02Q63.33-6.26 61.66-8.38Z" transform="translate(583.0950377777638 103) " fill="rgb(51, 51, 51)" stroke="rgb(51, 51, 51)" stroke-width="0.186" data-glyph-w="88.74067682539483" data-glyph-h="122.42320000000001" data-glyph-ascender="97.4024" data-glyph-descender="-25.0208" data-kerning="0"></path><path d="M57.86-78.19L57.86-78.19Q60.32-79.31 61.99-79.64Q63.67-79.98 66.46-79.87L66.46-79.87Q71.38-79.42 72.61-78.19L72.61-78.19Q74.06-76.74 73.72-72.88Q73.39-69.03 71.38-64.79L71.38-64.79Q68.14-58.31 69.81-57.86L69.81-57.86Q70.04-57.75 70.37-57.75L70.37-57.75Q71.71-57.75 74.62-56.74Q77.52-55.74 78.30-54.96L78.30-54.96Q79.08-54.17 78.53-51.72L78.53-51.72Q78.08-49.48 72.10-43.51Q66.13-37.53 62.33-35.74L62.33-35.74Q59.65-34.40 59.37-33.51Q59.09-32.62 60.09-30.05L60.09-30.05L60.99-27.93L63.56-30.16Q66.01-32.28 66.01-33.12Q66.01-33.96 66.57-34.52L66.57-34.52Q67.69-34.96 70.99-35.19Q74.28-35.41 75.06-34.85L75.06-34.85Q76.40-34.07 76.57-27.25Q76.74-20.44 75.62-16.53L75.62-16.53Q74.28-12.40 74.28-4.80L74.28-4.80Q74.28-2.12 74.28-0.95Q74.28 0.22 74.84 1.56Q75.40 2.90 75.79 3.30Q76.18 3.69 77.69 4.08Q79.20 4.47 80.54 4.47Q81.88 4.47 85.12 4.47L85.12 4.47L92.26 4.58L92.04 0.45Q91.82-3.24 92.49-3.35L92.49-3.35Q92.71-3.35 93.16-3.13L93.16-3.13Q94.61-2.68 98.35-1.23Q102.09 0.22 102.76 1.23L102.76 1.23Q104.55 4.02 102.15 7.71Q99.75 11.39 95.39 12.51L95.39 12.51Q91.26 13.63 85.17 13.01Q79.08 12.40 74.73 10.39L74.73 10.39Q70.59 8.38 69.37 6.70Q68.14 5.03 67.24 0.11L67.24 0.11Q66.57-3.02 66.01-4.02Q65.46-5.03 63.78-5.92L63.78-5.92Q61.32-7.15 59.98-8.38L59.98-8.38Q57.97-10.05 57.19-9.05L57.19-9.05Q56.30-8.04 54.06 1.01L54.06 1.01Q53.39 3.24 52.11 4.36Q50.82 5.47 49.93 4.47L49.93 4.47Q49.15 3.69 48.53 0.28Q47.92-3.13 49.26-5.92L49.26-5.92Q50.15-7.82 51.88-17.09Q53.62-26.36 53.62-29.38L53.62-29.38Q53.62-32.06 51.94-28.60L51.94-28.60Q51.16-27.03 50.27-24.35L50.27-24.35L47.14-15.19Q45.91-12.06 43.45-8.27L43.45-8.27Q41.22-4.80 35.07 1.62Q28.93 8.04 27.93 8.04L27.93 8.04Q27.03 8.04 26.19 6.20Q25.36 4.36 25.36 2.23L25.36 2.23Q25.36 0.56 27.37-2.79L27.37-2.79Q29.38-6.48 30.94-10.72Q32.50-14.97 32.78-17.48Q33.06-19.99 32.17-20.33L32.17-20.33Q31.16-20.33 25.02-14.30Q18.88-8.27 16.31-7.37L16.31-7.37Q14.30-6.70 11.56-6.98Q8.82-7.26 8.15-8.04L8.15-8.04Q8.04-8.27 8.99-9.10Q9.94-9.94 11.39-10.83L11.39-10.83Q14.97-12.96 23.46-20.11L23.46-20.11Q29.15-25.02 30.94-26.08Q32.73-27.14 34.85-27.14L34.85-27.14Q38.20-27.14 39.88-25.91Q41.55-24.69 41.05-22.73Q40.55-20.78 40.38-19.21Q40.21-17.65 39.54-15.64L39.54-15.64Q38.98-13.52 39.65-13.52L39.65-13.52Q40.44-13.63 42.33-16.76L42.33-16.76Q45.46-21.67 48.48-27.14Q51.49-32.62 51.49-33.17L51.49-33.17Q51.49-34.07 52.16-34.07Q52.83-34.07 56.97-38.09L56.97-38.09Q60.76-41.78 59.98-42.22L59.98-42.22Q59.76-42.33 59.42-42.33L59.42-42.33Q57.75-42.67 57.25-43.56Q56.74-44.46 56.52-48.48L56.52-48.48Q56.19-51.49 56.41-52.78Q56.63-54.06 57.53-55.29L57.53-55.29Q60.32-59.42 63.28-66.46Q66.24-73.50 65.57-75.06L65.57-75.06Q65.23-76.29 62.44-76.18Q59.65-76.07 57.86-74.84L57.86-74.84Q55.96-73.72 53.28-68.58L53.28-68.58L46.58-56.63Q43.12-50.60 40.83-45.24Q38.54-39.88 38.54-38.09L38.54-38.09Q38.54-36.53 36.97-35.35Q35.41-34.18 33.85-34.63L33.85-34.63Q32.95-34.85 30.21-39.65Q27.48-44.46 27.37-46.02L27.37-46.02Q27.37-48.37 24.57-47.25L24.57-47.25Q22.68-46.13 21.22-44.01L21.22-44.01Q20.22-42.22 18.65-41.83Q17.09-41.44 16.64-42.67L16.64-42.67Q16.42-43.56 15.97-47.25L15.97-47.25Q15.75-49.82 16.14-50.82Q16.53-51.83 18.65-54.29L18.65-54.29Q21.67-57.75 25.41-64.06Q29.15-70.37 30.16-73.50L30.16-73.50Q30.94-76.40 31.44-76.68Q31.95-76.96 33.40-75.51L33.40-75.51Q34.40-74.28 33.90-71.77Q33.40-69.25 31.05-64.00L31.05-64.00Q28.93-59.65 28.71-56.63L28.71-56.63L28.37-53.62L32.06-52.50L35.63-51.49L38.98-55.18Q42.33-58.87 46.02-64.67L46.02-64.67Q50.82-71.82 52.89-74.22Q54.96-76.63 57.86-78.19ZM69.70-24.35L69.70-24.35Q69.81-27.14 69.14-27.14L69.14-27.14Q67.80-27.14 64.17-22.79Q60.54-18.43 60.54-16.76L60.54-16.76Q60.54-15.75 61.21-15.30Q61.88-14.86 64.00-14.63L64.00-14.63Q67.47-14.07 68.03-14.52Q68.58-14.97 69.14-18.43Q69.70-21.89 69.70-24.35Z" transform="translate(671.8357146031586 103) " fill="rgb(51, 51, 51)" stroke="rgb(51, 51, 51)" stroke-width="0.186" data-glyph-w="88.74067682539483" data-glyph-h="122.42320000000001" data-glyph-ascender="97.4024" data-glyph-descender="-25.0208" data-kerning="0"></path><path d="M71.04-80.42L71.04-80.42Q71.04-84.56 71.38-84.56L71.38-84.56Q72.27-84.56 74.34-83.10Q76.40-81.65 76.40-81.09L76.40-81.09Q76.40-80.42 78.92-79.47Q81.43-78.53 84.00-78.30L84.00-78.30Q85.79-77.97 86.57-76.74L86.57-76.74Q87.01-75.84 86.85-75.23Q86.68-74.62 85.56-73.72L85.56-73.72Q83.55-72.27 80.87-71.04L80.87-71.04Q78.53-70.15 77.52-68.53Q76.51-66.91 75.96-63.67L75.96-63.67Q75.73-61.55 76.01-61.21Q76.29-60.88 77.63-61.32L77.63-61.32L81.43-61.99Q83.10-62.33 86.06-61.32Q89.02-60.32 89.58-59.09L89.58-59.09Q90.70-57.41 88.69-54.57Q86.68-51.72 83.22-50.04L83.22-50.04Q81.32-49.15 78.08-46.58Q74.84-44.01 74.84-41.72Q74.84-39.43 74.06-39.10L74.06-39.10Q73.61-38.65 73.39-38.42Q73.16-38.20 73.39-37.87Q73.61-37.53 74.11-37.20Q74.62-36.86 75.51-36.64L75.51-36.64Q77.52-35.86 78.80-33.17Q80.09-30.49 79.75-27.81L79.75-27.81Q79.20-23.57 75.34-14.97Q71.49-6.37 68.92-3.46L68.92-3.46L64.56 1.56Q57.97 9.05 52.39 8.94L52.39 8.94Q49.26 8.82 47.25 10.39L47.25 10.39Q45.35 11.62 40.27 13.74Q35.19 15.86 30.94 17.20Q26.70 18.54 26.70 17.98L26.70 17.98Q26.70 17.54 31.39 14.69Q36.08 11.84 36.86 11.84L36.86 11.84Q37.20 11.84 43.90 7.93L43.90 7.93Q49.15 4.80 52.44 2.18Q55.74-0.45 55.74-1.45L55.74-1.45Q55.74-3.13 52.72-6.93Q49.71-10.72 46.13-13.52L46.13-13.52Q42.45-16.31 41.16-18.37Q39.88-20.44 40.66-22.23L40.66-22.23Q41.22-23.57 42.33-22.56L42.33-22.56Q43.23-21.78 43.84-22.06Q44.46-22.34 45.35-24.35L45.35-24.35Q46.13-26.03 48.81-26.47L48.81-26.47Q51.72-27.14 54.62-31.61Q57.53-36.08 57.08-39.43L57.08-39.43Q56.74-41.44 57.75-41.66Q58.75-41.89 61.10-40.32L61.10-40.32Q62.89-39.10 63.50-38.26Q64.12-37.42 63.67-36.08L63.67-36.08Q63.11-34.85 64.12-34.96L64.12-34.96Q64.79-35.07 67.24-36.64L67.24-36.64L70.15-38.31L68.03-40.21Q63.33-44.34 57.86-43.12L57.86-43.12Q55.85-42.56 55.01-42.67Q54.17-42.78 53.17-43.79L53.17-43.79Q51.49-45.69 52.33-47.42Q53.17-49.15 55.96-49.59L55.96-49.59Q57.86-49.82 63.28-53.23Q68.70-56.63 68.70-57.53L68.70-57.53Q68.81-58.20 69.25-61.10L69.25-61.10Q69.48-62.89 69.25-63.39Q69.03-63.89 68.14-63.89L68.14-63.89Q66.80-63.89 65.23-63.17Q63.67-62.44 61.99-64.12L61.99-64.12Q59.31-66.57 60.76-67.47L60.76-67.47Q61.10-67.69 61.77-67.69L61.77-67.69Q63.33-67.69 66.80-69.81L66.80-69.81Q69.48-71.49 70.26-73.33Q71.04-75.17 71.04-80.42ZM80.87-56.30L80.87-56.30Q80.87-57.53 79.59-57.69Q78.30-57.86 76.96-56.86L76.96-56.86Q75.51-55.74 75.73-52.95L75.73-52.95L75.96-50.04L78.41-52.39Q80.87-54.84 80.87-56.30ZM71.04-27.81L71.04-27.81Q71.04-29.49 70.37-29.49L70.37-29.49Q68.47-29.49 62.50-25.08Q56.52-20.66 56.52-19.32L56.52-19.32Q56.52-18.32 58.70-17.03Q60.88-15.75 62.66-13.79Q64.45-11.84 65.01-11.84L65.01-11.84Q66.01-11.84 68.53-18.54Q71.04-25.24 71.04-27.81ZM42.78-82.66L42.78-82.66Q42.22-83.78 42.33-84.17Q42.45-84.56 43.23-84.56L43.23-84.56Q44.68-84.56 47.25-83.10L47.25-83.10Q48.92-82.21 49.48-81.37Q50.04-80.54 50.27-78.75L50.27-78.75L50.71-75.73L55.85-75.29Q60.99-74.95 62.11-73.50L62.11-73.50Q62.89-72.38 62.83-71.93Q62.78-71.49 61.77-70.59L61.77-70.59Q60.09-69.25 58.87-69.20Q57.64-69.14 54.17-67.47L54.17-67.47Q51.94-66.46 51.27-65.68Q50.60-64.90 50.49-63.22L50.49-63.22Q50.15-60.88 51.27-60.76L51.27-60.76Q51.72-60.76 52.28-61.55L52.28-61.55Q52.72-62.33 53.50-62.33L53.50-62.33Q55.18-62.33 52.28-56.07L52.28-56.07Q51.94-55.29 51.49-54.40L51.49-54.40Q50.27-51.94 50.04-50.38Q49.82-48.81 50.04-44.90L50.04-44.90Q50.49-41.22 50.27-39.82Q50.04-38.42 49.26-37.75L49.26-37.75Q48.03-36.41 46.36-37.03Q44.68-37.64 43.67-39.88L43.67-39.88Q42.33-42.45 41.89-42.45L41.89-42.45Q41.33-42.45 37.64-40.10Q33.96-37.75 31.39-35.97L31.39-35.97Q29.71-34.74 29.27-37.98L29.27-37.98Q28.82-42.56 31.05-44.90L31.05-44.90Q33.73-47.03 37.70-53.34Q41.66-59.65 41.11-60.43L41.11-60.43Q40.55-60.88 38.20-59.65L38.20-59.65Q34.18-57.53 25.91-59.65L25.91-59.65L21.67-60.65L25.36-62.22Q29.15-63.89 29.54-63.89Q29.94-63.89 36.75-67.13L36.75-67.13L43.56-70.26L43.56-75.40Q43.56-80.54 42.78-82.66Z" transform="translate(760.5763914285535 103) " fill="rgb(51, 51, 51)" stroke="rgb(51, 51, 51)" stroke-width="0.186" data-glyph-w="88.74067682539483" data-glyph-h="122.42320000000001" data-glyph-ascender="97.4024" data-glyph-descender="-25.0208" data-kerning="0"></path></g></svg>
                  </g>
                </g>
      </svg>