<?xml version="1.0" encoding="UTF-8"?><svg class="svg-canvas" viewBox="0 0 1080 1080" width="1080" height="1080" preserveAspectRatio="none" version="1.1" xmlns="http://www.w3.org/2000/svg" xmlns:xlink="http://www.w3.org/1999/xlink">
        <!--滤镜-->
        <defs></defs>

        <!-- 背景 -->
        <g id="background">
            <rect x="0" y="0" fill="#ffffff" width="1080" height="1080"></rect>
            
          </g>

        <!--元素-->
        
                <g id="shape_37MO1I27MH" ref="shape_37MO1I27MH" key="shape_37MO1I27MH" mask="">
                  <g transform="translate(3.6868209730606676,1.79140678472623) rotate(0,536.2089041095887,536.2089041095887) scale(1,1)" style="opacity: 1;mix-blend-mode: undefined;" filter="">
                    <!--普通元素-->
                    <rect fill="rgba(0,0,0,0)" width="1092.4178082191775" height="1092.4178082191775" x="-10" y="-10"></rect><svg version="1.1" id="EaskfRSu19" xmlns="http://www.w3.org/2000/svg" xmlns:xlink="http://www.w3.org/1999/xlink" x="0px" y="0px" width="1072.4178082191775" height="1072.4178082191775" viewBox="0 0 194.1 194.1" style="enable-background:new 0 0 194.1 194.1;" xml:space="preserve" class="style-removed" preserveAspectRatio="none" data-parent="shape_37MO1I27MH">

<g>
	<g>
		<polygon points="71.8,82.9 67.3,80.4 67.3,104.8 87.4,109.9 71.8,102.6 		" fill="#03ADDB" stroke-width="0"></polygon>
		<polygon points="122.3,82.9 122.3,102.6 106.7,109.9 126.8,104.8 126.8,80.4 		" fill="#03ADDB" stroke-width="0"></polygon>
		<polygon points="88.6,71.1 91.3,73.9 94.7,106.9 97,106.9 99.3,106.9 102.7,73.9 105.4,71.1 97,71.1 		" fill="#03ADDB" stroke-width="0"></polygon>
		<path d="M93.5,57.7c1.8-2.1,6.4-6.4,6.4-10.3s-2.2-5.8-2.2-5.8c0,2.9-7.8,9.2-7.8,13c0,3.8,2.2,6.5,2.2,6.5
			S91.7,59.8,93.5,57.7z" fill="#03ADDB" stroke-width="0"></path>
		<path d="M96.7,68.9c0,0-0.3-1.2,1.5-3.4c1.8-2.1,6.4-6.4,6.4-10.3c0-3.9-2.2-5.8-2.2-5.8c0,2.9-7.8,9.2-7.8,13
			C94.4,66.3,96.7,68.9,96.7,68.9z" fill="#03ADDB" stroke-width="0"></path>
	</g>
	<g>
		<path d="M194.1,94.9c-0.1-2.9-0.3-5.8-0.6-8.7c0,0,0,0,0,0c-0.3-2.7-0.7-5.5-1.3-8.1c-0.6-2.8-1.3-5.7-2.1-8.5
			c-0.8-2.6-1.7-5.3-2.7-7.8c-1-2.7-2.2-5.4-3.5-8c-1.2-2.5-2.6-4.9-4-7.2c0,0,0,0,0,0c-1.5-2.4-3.1-4.9-4.9-7.2
			c-1.6-2.2-3.4-4.3-5.2-6.4c-1.9-2.2-4-4.3-6-6.3c-1.9-1.9-4-3.7-6.2-5.4c-2.3-1.8-4.6-3.5-7-5.1c0,0,0,0,0,0c-2.3-1.5-4.7-3-7-4.3
			c-2.5-1.4-5.2-2.7-7.8-3.8c-2.6-1.1-5.1-2.1-7.7-3c-2.7-0.9-5.5-1.7-8.4-2.4c-2.7-0.6-5.4-1.2-8.1-1.6c-2.8-0.4-5.7-0.7-8.6-0.9
			C100.3,0,97.5,0,94.9,0c-2.9,0.1-5.8,0.3-8.7,0.6h0c0,0,0,0,0,0c-2.7,0.3-5.5,0.7-8.1,1.3c-2.8,0.6-5.7,1.3-8.5,2.1
			c-2.6,0.8-5.3,1.7-7.8,2.7c-2.7,1-5.3,2.2-8,3.5c-2.5,1.2-4.9,2.6-7.2,4c-2.4,1.5-4.9,3.1-7.2,4.9c0,0,0,0,0,0
			c-2.2,1.6-4.3,3.4-6.4,5.2c-2.2,1.9-4.3,4-6.3,6c-1.9,1.9-3.7,4-5.4,6.2c-1.8,2.3-3.5,4.6-5.1,7c0,0,0,0,0,0c-1.5,2.3-3,4.7-4.3,7
			c-1.4,2.5-2.7,5.2-3.8,7.8c-1.1,2.6-2.1,5.1-3,7.7c0,0,0,0,0,0c-0.9,2.7-1.7,5.5-2.4,8.4C2,77,1.5,79.7,1.1,82.3c0,0,0,0,0,0
			c-0.4,2.8-0.7,5.7-0.9,8.6c0,0,0,0,0,0s0,0,0,0C0.1,93.1,0,95.1,0,97.1c0,0.7,0,1.4,0,2.2c0,0,0,0,0,0c0.1,2.9,0.3,5.8,0.6,8.7
			c0,0,0,0,0,0c0.3,2.7,0.7,5.5,1.3,8.1c0.6,2.8,1.3,5.7,2.1,8.5c0.8,2.7,1.7,5.3,2.7,7.8c1,2.7,2.2,5.4,3.5,8
			c1.2,2.5,2.6,4.9,4,7.2c0,0,0,0,0,0c1.5,2.4,3.1,4.9,4.9,7.2c0,0,0,0,0,0c1.6,2.2,3.4,4.3,5.2,6.4c1.9,2.2,4,4.3,6,6.3
			c2,1.9,4,3.7,6.2,5.4c2.3,1.8,4.6,3.5,7,5.1c0,0,0,0,0,0c2.3,1.5,4.7,3,7,4.3c2.5,1.4,5.1,2.7,7.8,3.8c2.5,1.1,5.1,2.1,7.7,3
			c0,0,0,0,0,0c2.7,0.9,5.5,1.7,8.4,2.4c2.7,0.6,5.4,1.2,8.1,1.6c2.8,0.4,5.7,0.7,8.6,0.9c2.1,0.1,4.1,0.2,6.1,0.2
			c0.7,0,1.4,0,2.2,0c2.9-0.1,5.8-0.3,8.7-0.6c2.7-0.3,5.5-0.7,8.1-1.3c2.8-0.6,5.7-1.3,8.5-2.1c2.6-0.8,5.3-1.7,7.8-2.7
			c2.7-1,5.3-2.2,8-3.5c2.5-1.2,4.9-2.6,7.2-4c2.4-1.5,4.9-3.1,7.2-4.9c2.2-1.6,4.3-3.4,6.4-5.2c0,0,0,0,0,0c2.2-1.9,4.3-4,6.3-6
			c1.8-1.9,3.7-4,5.4-6.2c1.8-2.3,3.5-4.6,5.1-7c1.5-2.3,3-4.7,4.3-7c1.4-2.5,2.7-5.2,3.8-7.8c1.1-2.6,2.1-5.1,3-7.7
			c0.9-2.7,1.7-5.5,2.4-8.4c0,0,0,0,0,0c0.6-2.7,1.2-5.4,1.6-8.1c0,0,0,0,0,0c0,0,0,0,0,0c0.4-2.8,0.7-5.7,0.9-8.6
			c0.1-2.1,0.2-4.1,0.2-6.1C194.1,96.3,194.1,95.6,194.1,94.9z M17.5,65.1c0.9-2.2,1.9-4.5,3-6.6c0,0,0,0,0,0
			c1.1-2.3,2.4-4.5,3.8-6.7c1.3-2.1,2.7-4.1,4.1-6c1.5-2,3.2-4,4.9-6c0,0,0,0,0,0c1.6-1.8,3.3-3.5,5.1-5.2c1.9-1.8,3.8-3.5,5.8-5
			c0,0,0,0,0,0c1.9-1.5,3.8-2.9,5.9-4.2c2.1-1.4,4.4-2.7,6.6-3.9c2.1-1.1,4.3-2.2,6.5-3.2c2.3-1,4.8-1.9,7.2-2.7
			c2.3-0.8,4.7-1.4,7-2c2.5-0.6,5-1.1,7.6-1.4c2.4-0.3,4.8-0.6,7.2-0.7c0,0,0,0,0,0c2.7-0.1,5.2-0.2,7.7-0.1
			c2.4,0.1,4.8,0.3,7.2,0.5c2.6,0.3,5.1,0.7,7.6,1.2c2.3,0.5,4.7,1.1,7,1.8c0,0,0,0,0,0c2.5,0.7,4.9,1.6,7.3,2.5
			c2.2,0.9,4.5,1.9,6.6,3c2.3,1.1,4.5,2.4,6.7,3.8c2.1,1.3,4.1,2.7,6,4.1c2,1.5,4,3.2,6,4.9c0,0,0,0,0,0c0,0,0,0,0,0
			c1.8,1.6,3.5,3.3,5.2,5.1c1.8,1.9,3.5,3.8,5,5.8c1.5,1.9,2.9,3.9,4.2,5.9c1.4,2.1,2.7,4.4,3.9,6.6c1.1,2.1,2.2,4.3,3.2,6.5
			c1,2.3,1.9,4.8,2.7,7.2c0.8,2.3,1.4,4.7,2,7c0.6,2.5,1.1,5,1.4,7.6c0.3,2.4,0.6,4.8,0.7,7.2c0,0,0,0,0,0c0.1,1.7,0.1,3.3,0.1,4.9
			c0,0.1,0,0.2,0,0.3h-24.7c0-0.1,0-0.2,0-0.3c0-33.6-27.4-61-61-61s-61,27.4-61,61c0,0.1,0,0.2,0,0.3H11.3c0-0.1,0-0.2,0-0.3
			c0-0.9,0-1.9,0.1-2.8c0.1-2.4,0.3-4.8,0.5-7.2c0,0,0,0,0,0c0.3-2.6,0.7-5.1,1.2-7.6c0.5-2.3,1.1-4.7,1.8-7c0,0,0,0,0,0
			C15.6,69.9,16.5,67.5,17.5,65.1z M192.4,94.4l-3.5,1.8l-4.4,2.3c0-0.5,0-1,0-1.5c0-1.4,0-3-0.1-4.5l6.2-3.9l1.4-0.9
			C192.2,89.9,192.4,92.2,192.4,94.4z M10.1,88.2c-0.2,1.8-0.3,3.7-0.4,5.5l-8.1,4.2c0-0.3,0-0.5,0-0.8c0-1.8,0.1-3.6,0.2-5.4
			L10.1,88.2z M2.7,83.1l8.6-2.7c-0.4,1.9-0.7,3.9-0.9,5.9l-8.4,3.5C2.1,87.5,2.3,85.3,2.7,83.1z M31,121.5
			c-6.3-2.7-0.3-11.2-0.3-11.2c5.2,5.7,2.1,10,1.1,11.1c0.4,1.8,0.8,3.4,1.3,5.1c0-1.9,0.9-4.3,3.8-6.6c0,0,5,9.9-2.1,11.1
			c1.1,2.6,2.4,5,3.9,7.2c-0.6-2.1-0.5-5.3,3.3-8.6c0,0,5.3,9.5-1.5,11.1c1.7,2.2,3.5,4.2,5.3,6c-1.3-1.8-2.5-5.1,0.5-9.7
			c0,0,7.8,7.9,1.3,11.4c2.7,2.4,5.4,4.3,7.9,5.8c-1.6-1.5-3.5-4.6-0.9-9.8c0,0,8.4,6.6,2.7,10.8c4,2.2,6.9,3.2,6.9,3.2l-0.2,0.8
			c-0.1,0-2.8-0.9-6.7-3c-0.9,8-11.7,3.2-11.7,3.2c2.9-4.8,6.3-5.4,8.7-5c-2.2-1.4-4.6-3.1-6.9-5.2c-2.3,6.6-10.8,0.3-10.8,0.3
			c3.4-3.5,6.3-3.4,8.3-2.7c-1.7-1.7-3.4-3.5-4.9-5.6c-4,6.1-10.7-2.6-10.7-2.6c4.4-2.4,7.3-1.3,8.9,0c-1.5-2.2-2.8-4.6-3.9-7.3
			c-5.2,5-9.9-4.9-9.9-4.9c4.8-1.4,7.4,0.4,8.8,2.1C32.1,126.3,31.5,124,31,121.5z M162.3,130.9c-7.1-1.2-2.1-11.1-2.1-11.1
			c2.9,2.3,3.8,4.7,3.8,6.6c0.5-1.6,1-3.3,1.3-5.1c-1-1.1-4.1-5.4,1.1-11.1c0,0,6.1,8.6-0.3,11.2c-0.5,2.5-1.2,4.8-2,7
			c1.4-1.8,4-3.5,8.8-2.1c0,0-4.7,9.9-9.9,4.9c-1.1,2.7-2.5,5.1-3.9,7.3c1.7-1.4,4.6-2.5,8.9,0c0,0-6.7,8.7-10.7,2.6
			c-1.6,2.1-3.2,4-4.9,5.6c2-0.8,4.9-0.8,8.3,2.7c0,0-8.5,6.2-10.8-0.3c-2.4,2.1-4.8,3.8-6.9,5.2c2.4-0.4,5.7,0.2,8.7,5
			c0,0-10.8,4.7-11.7-3.2c-3.9,2.1-6.7,3-6.7,3l-0.2-0.8c0.1,0,2.9-1,6.9-3.2c-5.7-4.2,2.7-10.8,2.7-10.8c2.5,5.2,0.6,8.3-0.9,9.8
			c2.4-1.5,5.1-3.4,7.9-5.8c-6.5-3.5,1.3-11.4,1.3-11.4c3,4.7,1.8,7.9,0.5,9.7c1.8-1.8,3.6-3.7,5.3-6c-6.7-1.7-1.5-11.1-1.5-11.1
			c3.8,3.3,3.9,6.5,3.3,8.6C159.8,135.9,161.1,133.5,162.3,130.9z M126.8,166.5l-2.1-0.4l-1.5,1.5l-0.3-2.1l-1.9-1l1.9-0.9l0.3-2.1
			l1.5,1.5l2.1-0.3l-1,1.9L126.8,166.5z M117,171.6l-3-0.9l-2.4,1.9l-0.1-3.1l-2.6-1.7l2.9-1l0.8-3l1.9,2.4l3.1-0.2l-1.7,2.5
			L117,171.6z M102.5,177.4L98,175l-4.5,2.4l0.9-5l-3.6-3.5l5-0.7l2.2-4.5l2.2,4.5l5,0.7l-3.6,3.5L102.5,177.4z M78.5,166.2l3.1,0.2
			l1.9-2.4l0.8,3l2.9,1l-2.6,1.7l-0.1,3.1l-2.4-1.9l-3,0.9l1.1-2.9L78.5,166.2z M69.3,162.8l2.1,0.3l1.5-1.5l0.3,2.1l1.9,0.9l-1.9,1
			l-0.3,2.1l-1.5-1.5l-2.1,0.4l1-1.9L69.3,162.8z M97.1,156.4c-32.7,0-59.4-26.6-59.4-59.4s26.6-59.4,59.4-59.4s59.4,26.6,59.4,59.4
			S129.8,156.4,97.1,156.4z M182.5,115.5l8.7-2.7c-0.3,2-0.8,4.1-1.2,6.1l-8.8,1.9C181.7,119.1,182.1,117.3,182.5,115.5z
			 M191.8,85.9l-5.3,3.4l-2.2,1.4c-0.1-1.8-0.3-3.7-0.6-5.5l7-5.3l0.3-0.2C191.3,81.7,191.6,83.8,191.8,85.9z M4.2,75.2l8.8-1.9
			c-0.5,1.8-1,3.6-1.3,5.4l-8.7,2.7C3.3,79.3,3.7,77.2,4.2,75.2z M1.7,99.7l5.4-2.8l2.5-1.3c0,0.5,0,1,0,1.5c0,1.4,0,3,0.1,4.5
			l-7.7,4.9C1.9,104.2,1.7,101.9,1.7,99.7z M2.3,108.2l4.8-3l2.8-1.8c0.1,1.8,0.3,3.7,0.6,5.5l-7,5.3l-0.3,0.2
			C2.9,112.4,2.5,110.3,2.3,108.2z M192.2,104.3c-0.2,2.3-0.4,4.5-0.7,6.7l-8.6,2.7c0.4-1.9,0.7-3.9,0.9-5.9l1.8-0.8L192.2,104.3z
			 M192.5,97.1c0,1.7-0.1,3.6-0.2,5.4l-8.3,3.4c0.2-1.8,0.3-3.7,0.4-5.5l7.1-3.6l1-0.5C192.5,96.5,192.5,96.8,192.5,97.1z
			 M183.4,83.3c-0.3-2-0.7-3.9-1.1-5.9l3.5-3.2l3.2-2.9c0.6,2.2,1.1,4.4,1.6,6.5L183.4,83.3z M181.8,75.6c-0.4-1.8-1-3.6-1.5-5.3
			l6.2-6.7c0.7,1.9,1.4,3.9,2,5.9L181.8,75.6z M179.8,68.4L179.8,68.4c-0.7-1.8-1.5-3.7-2.2-5.5l5.5-7.2c1,2,1.9,4.1,2.7,6.2
			L179.8,68.4z M176.8,61.2c-0.8-1.7-1.6-3.3-2.4-5l4.9-7.6c1,1.8,2,3.6,3,5.5L176.8,61.2z M173.5,54.6c-1-1.7-2-3.4-3.1-5.1l4.2-8
			c1.3,1.8,2.6,3.7,3.7,5.6L173.5,54.6z M169.4,47.9L169.4,47.9c-1.1-1.5-2.2-3-3.3-4.4l3.5-8.4c1.4,1.6,2.7,3.2,3.9,4.9L169.4,47.9
			z M168.4,33.7L165,42c-1.2-1.5-2.6-3-3.9-4.5l2.7-8.7C165.4,30.4,166.9,32,168.4,33.7z M159.7,36.1c-1.3-1.3-2.6-2.6-4-3.8
			l1.7-7.7l0.3-1.2c1.6,1.3,3.2,2.7,4.7,4.1L159.7,36.1z M154.4,31.1c-1.5-1.3-3.1-2.6-4.6-3.8l1.2-9c1.8,1.3,3.7,2.6,5.4,4
			L154.4,31.1z M148.2,26.2c-1.5-1.1-3-2.1-4.6-3.1l0.4-9.1c1.8,1,3.6,2.1,5.3,3.3L148.2,26.2z M142.5,13.1l-0.4,9
			c-1.7-1-3.5-2-5.2-2.9l-0.3-6.7l-0.1-2.4C138.5,11.1,140.5,12.1,142.5,13.1z M134.8,9.4l0.2,3.7l0.2,5.3c-1.7-0.8-3.4-1.6-5.1-2.3
			l-0.4-3.4l-0.7-5.6C130.9,7.8,132.8,8.5,134.8,9.4z M127.2,6.5l1.1,8.9c-1.8-0.7-3.7-1.4-5.6-1.9l-1.9-8.9
			C122.9,5.2,125.1,5.8,127.2,6.5z M119,4.2l1.9,8.8c-1.8-0.5-3.6-1-5.4-1.3l-2.7-8.7C114.9,3.3,116.9,3.7,119,4.2z M111,2.7
			l2.7,8.6c-1.9-0.4-3.9-0.7-5.9-0.9l-0.4-1.1l-3-7.3C106.6,2.1,108.8,2.3,111,2.7z M102.5,1.8l3.4,8.3c-1.8-0.2-3.7-0.3-5.5-0.4
			l-3.6-7.1l-0.5-1C98.3,1.6,100.3,1.7,102.5,1.8z M94.4,1.7l1.8,3.5l2.3,4.4c-1.9,0-3.9,0-6,0.1l-4.3-6.7l-0.6-1
			C89.9,1.9,92.2,1.7,94.4,1.7z M85.9,2.3l3,4.8l1.8,2.8c-1.8,0.1-3.7,0.3-5.5,0.6l-5.5-7.2C81.7,2.9,83.8,2.5,85.9,2.3z M77.9,3.6
			l0.5,0.7l4.9,6.4c-2,0.3-3.9,0.7-5.9,1.1l-6-6.6l-0.1-0.1C73.5,4.6,75.7,4,77.9,3.6z M69.6,5.7l5.6,6.1l0.5,0.5
			c-1.8,0.4-3.6,1-5.3,1.5l-1.1-1.1l-5.5-5.1C65.6,6.9,67.6,6.3,69.6,5.7z M61.9,8.3l6.6,6.1c-1.9,0.6-3.7,1.4-5.6,2.1L55.8,11
			C57.8,10,59.9,9.1,61.9,8.3z M54.1,11.8l7.1,5.5c-1.7,0.8-3.3,1.6-5,2.4l-7.6-4.9C50.4,13.8,52.3,12.8,54.1,11.8z M47.1,15.8
			l7.6,4.9c-1.7,1-3.4,2-5.1,3.1l-8-4.2C43.3,18.2,45.2,16.9,47.1,15.8z M40,20.6l7.9,4.1l0,0c-1.5,1.1-3,2.1-4.5,3.3l-8.4-3.5
			C36.7,23.1,38.3,21.8,40,20.6z M33.7,25.7l8.3,3.5c-1.5,1.2-3,2.5-4.5,3.9l-8.7-2.7C30.4,28.7,32,27.2,33.7,25.7z M27.6,31.7
			l8.6,2.7c-1.3,1.3-2.6,2.6-3.8,4l-7.7-1.7l-1.2-0.3C24.8,34.7,26.2,33.1,27.6,31.7z M22.3,37.8l8.8,2c-1.3,1.5-2.6,3.1-3.8,4.6
			l-9-1.2C19.6,41.3,20.9,39.5,22.3,37.8z M17.3,44.7l8.9,1.2c-1.1,1.5-2.1,3-3.1,4.6l-0.3,0L14,50.1C15,48.2,16.1,46.5,17.3,44.7z
			 M13.1,51.7l9,0.4c-1,1.7-2,3.5-2.9,5.2l-6.7,0.3l-2.3,0.1C11.1,55.6,12.1,53.6,13.1,51.7z M9.4,59.4l3.7-0.2l5.3-0.2
			c-0.8,1.7-1.6,3.4-2.3,5.1l-3.8,0.5l-5.3,0.7C7.8,63.3,8.6,61.3,9.4,59.4z M6.5,66.9l3.2-0.4l5.7-0.7c-0.7,1.8-1.4,3.7-1.9,5.6
			l-8.9,1.9C5.2,71.2,5.8,69,6.5,66.9z M10.7,110.8c0.3,2,0.7,3.9,1.1,5.9l-6.6,6l-0.1,0.1c-0.6-2.2-1.1-4.4-1.6-6.5L10.7,110.8z
			 M11.8,118.9l0.5-0.5c0.4,1.8,1,3.6,1.5,5.3l-6.2,6.7c-0.7-1.9-1.4-3.9-2-5.9L11.8,118.9z M14.4,125.6L14.4,125.6
			c0.7,1.9,1.4,3.7,2.2,5.5l-5.5,7.2c-1-2-1.9-4.1-2.7-6.2L14.4,125.6z M17.3,132.9c0.8,1.7,1.6,3.3,2.4,5l-4.9,7.6
			c-1-1.8-2-3.6-3-5.5L17.3,132.9z M20.6,139.5c1,1.7,2,3.4,3.1,5.1l-4.2,8c-1.3-1.8-2.6-3.7-3.7-5.6L20.6,139.5z M24.7,146.2
			L24.7,146.2c1.1,1.5,2.2,3,3.3,4.4l-3.5,8.4c-1.4-1.6-2.7-3.2-3.9-4.9L24.7,146.2z M25.7,160.4l3.5-8.3c1.2,1.5,2.6,3,3.9,4.5
			l-2.7,8.7C28.8,163.7,27.2,162.1,25.7,160.4z M34.4,158c1.3,1.3,2.6,2.6,4,3.8l-1.7,7.4l-0.3,1.4c-1.6-1.3-3.2-2.7-4.7-4.1
			L34.4,158z M39.8,163.1c1.5,1.3,3.1,2.6,4.6,3.8l-1.2,9c-1.8-1.3-3.7-2.6-5.4-4L39.8,163.1z M45.9,167.9c1.5,1.1,3,2.1,4.6,3.1
			l-0.4,9.1c-1.8-1-3.6-2.1-5.3-3.3L45.9,167.9z M51.7,181l0.4-9c1.7,1,3.5,2,5.2,2.9l0.3,6.7l0.1,2.4
			C55.6,183.1,53.6,182.1,51.7,181z M59.4,184.7l-0.2-3.7l-0.2-5.3c1.7,0.8,3.4,1.6,5.1,2.3l0.4,3.4l0.7,5.6
			C63.3,186.3,61.3,185.6,59.4,184.7z M66.9,187.6l-1.1-8.9c1.8,0.7,3.7,1.4,5.6,1.9l1.2,5.3l0.8,3.5
			C71.2,188.9,69,188.3,66.9,187.6z M75.2,189.9l-1.9-8.8c1.8,0.5,3.6,1,5.4,1.3l2.7,8.7C79.3,190.8,77.2,190.4,75.2,189.9z
			 M83.1,191.5l-2.7-8.6c1.9,0.4,3.9,0.7,5.9,0.9l0.4,1.1l3,7.3C87.5,192,85.3,191.8,83.1,191.5z M91.6,192.3l-3.4-8.3
			c1.8,0.2,3.7,0.3,5.5,0.4l4.2,8.1C95.8,192.5,93.8,192.4,91.6,192.3z M99.7,192.4l-1.8-3.5l-2.3-4.4c1.9,0,3.9,0,6-0.1l4.9,7.7
			C104.2,192.2,101.9,192.4,99.7,192.4z M108.2,191.8l-3-4.8l-1.8-2.8c1.8-0.1,3.7-0.3,5.5-0.6l5.3,7l0.2,0.3
			C112.4,191.3,110.3,191.6,108.2,191.8z M116.2,190.5l-2.9-3.8l-2.5-3.3c2-0.3,3.9-0.7,5.9-1.1l3.2,3.5l3,3.2
			C120.6,189.6,118.4,190.1,116.2,190.5z M124.5,188.4l-6.1-6.6c1.8-0.4,3.6-1,5.3-1.5l1.1,1.1l5.5,5.1
			C128.5,187.2,126.5,187.8,124.5,188.4z M132.2,185.8l-6.6-6.1c1.9-0.6,3.7-1.4,5.6-2.1l7.2,5.5C136.3,184.1,134.2,185,132.2,185.8
			z M140,182.3l-7-5.4l-0.1-0.1c1.7-0.8,3.3-1.6,5-2.4l7.6,4.9C143.7,180.3,141.9,181.3,140,182.3z M147.1,178.3l-7.6-4.9
			c1.7-1,3.4-2,5.1-3.1l8,4.2C150.8,175.9,148.9,177.2,147.1,178.3z M154.1,173.5l-8-4.2c1.5-1.1,3-2.1,4.5-3.3l8.4,3.5
			C157.4,171,155.8,172.3,154.1,173.5z M160.4,168.4l-8.3-3.5c1.5-1.2,3-2.5,4.5-3.9l8.7,2.7C163.7,165.4,162.1,166.9,160.4,168.4z
			 M166.5,162.5l-8.6-2.7c1.3-1.3,2.6-2.6,3.8-4l5.8,1.3l3,0.7C169.3,159.4,167.9,161,166.5,162.5z M171.8,156.3l-8.8-2
			c1.3-1.5,2.6-3.1,3.8-4.6l9,1.2C174.6,152.8,173.2,154.6,171.8,156.3z M176.8,149.4l-8.9-1.2c1.1-1.5,2.1-3,3.1-4.6l0.2,0l8.9,0.4
			C179.1,145.9,178,147.7,176.8,149.4z M181,142.5l-9-0.4c1-1.7,2-3.5,2.9-5.2l9.1-0.4C183.1,138.5,182.1,140.5,181,142.5z
			 M184.7,134.8l-9,0.4c0.8-1.7,1.6-3.4,2.3-5.1l3.8-0.5l5.3-0.7C186.3,130.9,185.6,132.8,184.7,134.8z M187.6,127.2l-3.2,0.4
			l-5.7,0.7c0.7-1.9,1.4-3.7,1.9-5.6l5.3-1.2l3.5-0.8C188.9,122.9,188.3,125.1,187.6,127.2z" fill="#013B74" stroke-width="0"></path>
		<polygon points="81,96.7 81,76.6 76.2,73.1 76.2,98.3 89.8,108.4 		" fill="#013B74" stroke-width="0"></polygon>
		<polygon points="63.3,92.1 58.6,90.3 58.6,113.2 84.4,112.7 63.3,109.9 		" fill="#013B74" stroke-width="0"></polygon>
		<polygon points="117.9,73.1 113.1,76.6 113.1,96.7 104.3,108.4 117.9,98.3 		" fill="#013B74" stroke-width="0"></polygon>
		<polygon points="130.8,109.9 109.7,112.7 135.5,113.2 135.5,90.3 130.8,92.1 		" fill="#013B74" stroke-width="0"></polygon>
		<path d="M97,109.2c-6.2,0-8.4,3.5-8.4,3.5h16.8C105.5,112.7,103.2,109.2,97,109.2z" fill="#013B74" stroke-width="0"></path>
	</g>
</g>
</svg>
                  </g>
                </g>
                <g id="shape_Uc9YIQ4ug9" ref="shape_Uc9YIQ4ug9" key="shape_Uc9YIQ4ug9" mask="">
                  <g transform="translate(185.44966982774787,613.5308453236039) rotate(0,357.517064054069,165.017064054069) scale(1,1)" style="opacity: 1;mix-blend-mode: undefined;" filter="">
                    <!--普通元素-->
                    <svg xmlns="http://www.w3.org/2000/svg" version="1.1" xmlns:xlink="http://www.w3.org/1999/xlink" width="715.034128108138" height="330.034128108138" viewBox="0 0 715.034128108138 330.034128108138" data-ligature="true" data-parent="shape_Uc9YIQ4ug9"><g data-role="text" data-width="148.11264000000003" data-height="43" transform="translate(283.460744054069, 143.517064054069)"><path d="M15.40-11.19L2.34-11.19L2.34-16.22L15.40-16.22L15.40-11.19Z" transform="translate(0 39) " fill="rgb(1, 59, 116)" stroke="rgb(1, 59, 116)" stroke-width="0.08" data-glyph-w="17.700800000000005" data-glyph-h="47.84000000000001" data-glyph-ascender="42.0992" data-glyph-descender="-5.740800000000001" data-kerning="0"></path><path d="M25.79 0L2.06 0L2.06-4.07Q9.33-10.52 13.35-15.62Q17.37-20.71 17.37-24.78L17.37-24.78Q17.37-27.46 15.98-28.99Q14.59-30.52 12.06-30.52L12.06-30.52Q10.14-30.52 8.52-29.47Q6.89-28.42 5.55-26.89L5.55-26.89L1.72-30.71Q4.11-33.30 6.72-34.68Q9.33-36.07 12.96-36.07L12.96-36.07Q17.99-36.07 21.05-33.11Q24.11-30.14 24.11-25.16L24.11-25.16Q24.11-21.96 22.51-18.63Q20.91-15.31 18.25-12.01Q15.60-8.71 12.34-5.55L12.34-5.55Q13.73-5.69 15.31-5.81Q16.89-5.93 18.08-5.93L18.08-5.93L25.79-5.93L25.79 0Z" transform="translate(17.700800000000005 39) " fill="rgb(1, 59, 116)" stroke="rgb(1, 59, 116)" stroke-width="0.08" data-glyph-w="28.177760000000003" data-glyph-h="47.84000000000001" data-glyph-ascender="42.0992" data-glyph-descender="-5.740800000000001" data-kerning="0"></path><path d="M14.11 0.67L14.11 0.67Q8.71 0.67 5.41-4.02Q2.10-8.71 2.10-17.84L2.10-17.84Q2.10-27.03 5.41-31.55Q8.71-36.07 14.11-36.07L14.11-36.07Q19.52-36.07 22.80-31.53Q26.07-26.98 26.07-17.84L26.07-17.84Q26.07-8.71 22.80-4.02Q19.52 0.67 14.11 0.67ZM14.11-4.83L14.11-4.83Q15.64-4.83 16.84-6.00Q18.04-7.18 18.73-10.02Q19.42-12.87 19.42-17.84L19.42-17.84Q19.42-22.82 18.73-25.59Q18.04-28.37 16.84-29.49Q15.64-30.62 14.11-30.62L14.11-30.62Q12.58-30.62 11.36-29.49Q10.14-28.37 9.45-25.59Q8.75-22.82 8.75-17.84L8.75-17.84Q8.75-12.87 9.45-10.02Q10.14-7.18 11.36-6.00Q12.58-4.83 14.11-4.83Z" transform="translate(45.87856000000001 39) " fill="rgb(1, 59, 116)" stroke="rgb(1, 59, 116)" stroke-width="0.08" data-glyph-w="28.177760000000003" data-glyph-h="47.84000000000001" data-glyph-ascender="42.0992" data-glyph-descender="-5.740800000000001" data-kerning="0"></path><path d="M25.79 0L2.06 0L2.06-4.07Q9.33-10.52 13.35-15.62Q17.37-20.71 17.37-24.78L17.37-24.78Q17.37-27.46 15.98-28.99Q14.59-30.52 12.06-30.52L12.06-30.52Q10.14-30.52 8.52-29.47Q6.89-28.42 5.55-26.89L5.55-26.89L1.72-30.71Q4.11-33.30 6.72-34.68Q9.33-36.07 12.96-36.07L12.96-36.07Q17.99-36.07 21.05-33.11Q24.11-30.14 24.11-25.16L24.11-25.16Q24.11-21.96 22.51-18.63Q20.91-15.31 18.25-12.01Q15.60-8.71 12.34-5.55L12.34-5.55Q13.73-5.69 15.31-5.81Q16.89-5.93 18.08-5.93L18.08-5.93L25.79-5.93L25.79 0Z" transform="translate(74.05632000000001 39) " fill="rgb(1, 59, 116)" stroke="rgb(1, 59, 116)" stroke-width="0.08" data-glyph-w="28.177760000000003" data-glyph-h="47.84000000000001" data-glyph-ascender="42.0992" data-glyph-descender="-5.740800000000001" data-kerning="0"></path><path d="M13.35-23.35L7.85-14.54L16.07-14.54L16.07-21.77Q16.07-24.16 16.27-27.60L16.27-27.60Q16.31-28.42 16.36-29.09L16.36-29.09L16.17-29.09Q14.88-26.26 13.35-23.35L13.35-23.35ZM22.63-14.54L26.84-14.54L26.84-9.19L22.63-9.19L22.63 0L16.07 0L16.07-9.19L1.00-9.19L1.00-13.97L14.21-35.40L22.63-35.40L22.63-14.54Z" transform="translate(102.23408000000002 39) " fill="rgb(1, 59, 116)" stroke="rgb(1, 59, 116)" stroke-width="0.08" data-glyph-w="28.177760000000003" data-glyph-h="47.84000000000001" data-glyph-ascender="42.0992" data-glyph-descender="-5.740800000000001" data-kerning="0"></path><path d="M15.40-11.19L2.34-11.19L2.34-16.22L15.40-16.22L15.40-11.19Z" transform="translate(130.41184 39) " fill="rgb(1, 59, 116)" stroke="rgb(1, 59, 116)" stroke-width="0.08" data-glyph-w="17.700800000000005" data-glyph-h="47.84000000000001" data-glyph-ascender="42.0992" data-glyph-descender="-5.740800000000001" data-kerning="0"></path></g></svg>
                  </g>
                </g>
                <g id="shape_MfKyVG1SAB" ref="shape_MfKyVG1SAB" key="shape_MfKyVG1SAB" mask="">
                  <g transform="translate(68.09992286445781,71.06205788517168) rotate(0,471.79580221819174,256.1287387186356) scale(1,1)" style="opacity: 1;mix-blend-mode: undefined;" filter="">
                    <!--普通元素-->
                    <svg xmlns="http://www.w3.org/2000/svg" version="1.1" xmlns:xlink="http://www.w3.org/1999/xlink" width="1583.2006661682376" height="1151.8665391691252" viewBox="0 0 1583.2006661682376 1151.8665391691252" data-ligature="false" data-parent="shape_MfKyVG1SAB"><rect width="943.5916044363835" height="512.2574774372712" fill="rgba(0,0,0,0)"></rect><g transform="translate(471.79580221819174, 166.17762627647846)"><path d="M41.64-87.97Q25.66-87.97 14.42-76.67L14.42-76.67Q3.12-65.38 3.12-49.45L3.12-49.45Q3.12-33.47 14.42-22.23L14.42-22.23Q25.66-10.93 41.64-10.93L41.64-10.93Q59.55-10.93 71.10-24.67L71.10-24.67L60.54-33.57Q53.14-24.72 41.64-24.72L41.64-24.72Q31.39-24.72 24.15-31.96L24.15-31.96Q16.92-39.19 16.92-49.45L16.92-49.45Q16.92-59.65 24.15-66.89L24.15-66.89Q31.39-74.12 41.64-74.12L41.64-74.12Q53.14-74.12 60.54-65.32L60.54-65.32L71.10-74.17Q59.55-87.97 41.64-87.97L41.64-87.97Z" transform="translate(-37.11192518626258, -55.53818359375) rotate(-76.20548474494352, 37.11192518626258, 363.2925815238154)  " fill="rgb(1, 59, 116)" stroke="rgb(1, 59, 116)" stroke-width="0.178" data-glyph-w="114.01108108273115" data-glyph-h="111.0763671875" data-glyph-ascender="89.31914062499999" data-glyph-descender="-21.757226562499998" data-kerning="0"></path><path d="M37.63-34.82L37.63-62.72L51.43-62.72L51.43-12.28L37.63-12.28L37.63-14.47Q32.38-10.93 25.71-10.93L25.71-10.93Q16.55-10.93 10.10-17.54L10.10-17.54Q3.64-24.15 3.64-33.52L3.64-33.52L3.64-62.72L17.44-62.72L17.44-34.82Q17.44-30.66 20.40-27.69L20.40-27.69Q23.37-24.72 27.53-24.72L27.53-24.72Q31.75-24.72 34.67-27.69L34.67-27.69Q37.63-30.66 37.63-34.82L37.63-34.82Z" transform="translate(-27.53458143626258, -55.53818359375) rotate(-61.136204606766995, 27.53458143626258, 363.2925815238154)  " fill="rgb(1, 59, 116)" stroke="rgb(1, 59, 116)" stroke-width="0.178" data-glyph-w="94.85639358273114" data-glyph-h="111.0763671875" data-glyph-ascender="89.31914062499999" data-glyph-descender="-21.757226562499998" data-kerning="0"></path><path d="M17.44-12.28L17.44-86.61L3.64-86.61L3.64-12.28L17.44-12.28Z" transform="translate(-10.540001358137584, -55.53818359375) rotate(-49.90112378198425, 10.540001358137584, 363.2925815238154)  " fill="rgb(1, 59, 116)" stroke="rgb(1, 59, 116)" stroke-width="0.178" data-glyph-w="60.86723342648115" data-glyph-h="111.0763671875" data-glyph-ascender="89.31914062499999" data-glyph-descender="-21.757226562499998" data-kerning="0"></path><path d="M9.79-62.72L2.08-62.72L2.08-48.93L9.79-48.93L9.79-29.25Q9.79-22.23 14.73-17.23L14.73-17.23Q19.73-12.28 26.75-12.28L26.75-12.28L33.94-12.28L33.94-26.08L26.75-26.08Q25.45-26.08 24.52-27.01L24.52-27.01Q23.58-27.95 23.58-29.25L23.58-29.25L23.58-48.93L33.94-48.93L33.94-62.72L23.58-62.72L23.58-78.65L9.79-78.65L9.79-62.72Z" transform="translate(-18.00928846751258, -55.53818359375) rotate(-40.04049638394207, 18.00928846751258, 363.2925815238154)  " fill="rgb(1, 59, 116)" stroke="rgb(1, 59, 116)" stroke-width="0.178" data-glyph-w="75.80580764523114" data-glyph-h="111.0763671875" data-glyph-ascender="89.31914062499999" data-glyph-descender="-21.757226562499998" data-kerning="0"></path><path d="M37.63-34.82L37.63-62.72L51.43-62.72L51.43-12.28L37.63-12.28L37.63-14.47Q32.38-10.93 25.71-10.93L25.71-10.93Q16.55-10.93 10.10-17.54L10.10-17.54Q3.64-24.15 3.64-33.52L3.64-33.52L3.64-62.72L17.44-62.72L17.44-34.82Q17.44-30.66 20.40-27.69L20.40-27.69Q23.37-24.72 27.53-24.72L27.53-24.72Q31.75-24.72 34.67-27.69L34.67-27.69Q37.63-30.66 37.63-34.82L37.63-34.82Z" transform="translate(-27.53458143626258, -55.53818359375) rotate(-27.727633773709748, 27.53458143626258, 363.2925815238154)  " fill="rgb(1, 59, 116)" stroke="rgb(1, 59, 116)" stroke-width="0.178" data-glyph-w="94.85639358273114" data-glyph-h="111.0763671875" data-glyph-ascender="89.31914062499999" data-glyph-descender="-21.757226562499998" data-kerning="0"></path><path d="M17.44-38.99L17.44-38.99L17.44-12.28L3.64-12.28L3.64-62.72L17.44-62.72L17.44-60.64Q22.90-64.02 29.83-64.02L29.83-64.02Q30.66-64.02 31.54-63.97L31.54-63.97L31.54-49.86Q30.14-50.23 28.68-50.23L28.68-50.23Q24.05-50.23 20.77-46.95L20.77-46.95Q17.44-43.67 17.44-38.99Z" transform="translate(-16.812120498762585, -55.53818359375) rotate(-15.587516676127885, 16.812120498762585, 363.2925815238154)  " fill="rgb(1, 59, 116)" stroke="rgb(1, 59, 116)" stroke-width="0.178" data-glyph-w="73.41147170773115" data-glyph-h="111.0763671875" data-glyph-ascender="89.31914062499999" data-glyph-descender="-21.757226562499998" data-kerning="0"></path><path d="M27.33-24.72Q22.59-24.72 19.26-28.47L19.26-28.47Q15.88-32.22 15.88-37.48L15.88-37.48Q15.88-42.79 19.26-46.48L19.26-46.48Q22.59-50.23 27.33-50.23L27.33-50.23Q32.06-50.23 35.39-46.48L35.39-46.48Q38.73-42.79 38.73-37.48L38.73-37.48Q38.73-32.22 35.39-28.47L35.39-28.47Q32.06-24.72 27.33-24.72L27.33-24.72ZM38.73-60.80Q33.36-64.02 26.81-64.02L26.81-64.02Q16.55-64.02 9.32-56.27L9.32-56.27Q2.08-48.51 2.08-37.48L2.08-37.48Q2.08-26.49 9.32-18.74L9.32-18.74Q16.55-10.93 26.81-10.93L26.81-10.93Q33.36-10.93 38.73-14.16L38.73-14.16L38.73-12.28L52.52-12.28L52.52-62.72L38.73-62.72L38.73-60.80Z" transform="translate(-28.081114639387582, -55.53818359375) rotate(-3.3685374966838513, 28.081114639387582, 363.2925815238154)  " fill="rgb(1, 59, 116)" stroke="rgb(1, 59, 116)" stroke-width="0.178" data-glyph-w="95.94945998898115" data-glyph-h="111.0763671875" data-glyph-ascender="89.31914062499999" data-glyph-descender="-21.757226562499998" data-kerning="0"></path><path d="M17.44-12.28L17.44-86.61L3.64-86.61L3.64-12.28L17.44-12.28Z" transform="translate(-10.540001358137584, -55.53818359375) rotate(7.945405409961062, 10.540001358137584, 363.2925815238154)  " fill="rgb(1, 59, 116)" stroke="rgb(1, 59, 116)" stroke-width="0.178" data-glyph-w="60.86723342648115" data-glyph-h="111.0763671875" data-glyph-ascender="89.31914062499999" data-glyph-descender="-21.757226562499998" data-kerning="0"></path><path d="M35.76-12.28L5.21-12.28L5.21-86.61L35.76-86.61Q49.50-86.61 59.23-75.73L59.23-75.73Q68.92-64.86 68.92-49.45L68.92-49.45Q68.92-34.04 59.23-23.16L59.23-23.16Q49.50-12.28 35.76-12.28L35.76-12.28ZM35.76-72.82L19.00-72.82L19.00-26.08L35.76-26.08Q43.77-26.08 49.45-32.90L49.45-32.90Q55.12-39.77 55.12-49.45L55.12-49.45Q55.12-59.13 49.45-65.95L49.45-65.95Q43.77-72.82 35.76-72.82L35.76-72.82Z" transform="translate(-36.01885878001258, -55.53818359375) rotate(20.404726172223114, 36.01885878001258, 363.2925815238154)  " fill="rgb(1, 59, 116)" stroke="rgb(1, 59, 116)" stroke-width="0.178" data-glyph-w="111.82494827023115" data-glyph-h="111.0763671875" data-glyph-ascender="89.31914062499999" data-glyph-descender="-21.757226562499998" data-kerning="0"></path><path d="M17.44-38.99L17.44-38.99L17.44-12.28L3.64-12.28L3.64-62.72L17.44-62.72L17.44-60.64Q22.90-64.02 29.83-64.02L29.83-64.02Q30.66-64.02 31.54-63.97L31.54-63.97L31.54-49.86Q30.14-50.23 28.68-50.23L28.68-50.23Q24.05-50.23 20.77-46.95L20.77-46.95Q17.44-43.67 17.44-38.99Z" transform="translate(-16.812120498762585, -55.53818359375) rotate(33.76908320728429, 16.812120498762585, 363.2925815238154)  " fill="rgb(1, 59, 116)" stroke="rgb(1, 59, 116)" stroke-width="0.178" data-glyph-w="73.41147170773115" data-glyph-h="111.0763671875" data-glyph-ascender="89.31914062499999" data-glyph-descender="-21.757226562499998" data-kerning="0"></path><path d="M49.86-30.61L17.85-30.61Q18.63-29.46 19.62-28.47L19.62-28.47Q23.37-24.72 28.63-24.72L28.63-24.72Q34.51-24.72 38.36-29.20L38.36-29.20L50.39-22.28Q42.47-10.93 28.63-10.93L28.63-10.93Q17.65-10.93 9.89-18.74L9.89-18.74Q2.08-26.49 2.08-37.48L2.08-37.48Q2.08-48.51 9.89-56.27L9.89-56.27Q17.65-64.02 28.63-64.02L28.63-64.02Q39.66-64.02 47.42-56.27L47.42-56.27Q55.17-48.51 55.17-37.48L55.17-37.48Q55.17-33.89 54.24-30.45L54.24-30.45L49.86-30.61ZM17.91-44.40L17.91-44.40L39.35-44.40Q38.62-45.49 37.63-46.48L37.63-46.48Q33.94-50.23 28.63-50.23L28.63-50.23Q23.37-50.23 19.62-46.48L19.62-46.48Q18.63-45.49 17.91-44.40Z" transform="translate(-28.627647842512584, -55.53818359375) rotate(46.066924468590486, 28.627647842512584, 363.2925815238154)  " fill="rgb(1, 59, 116)" stroke="rgb(1, 59, 116)" stroke-width="0.178" data-glyph-w="97.04252639523115" data-glyph-h="111.0763671875" data-glyph-ascender="89.31914062499999" data-glyph-descender="-21.757226562499998" data-kerning="0"></path><path d="M27.33-24.72Q22.59-24.72 19.26-28.47L19.26-28.47Q15.88-32.22 15.88-37.48L15.88-37.48Q15.88-42.79 19.26-46.48L19.26-46.48Q22.59-50.23 27.33-50.23L27.33-50.23Q32.06-50.23 35.39-46.48L35.39-46.48Q38.73-42.79 38.73-37.48L38.73-37.48Q38.73-32.22 35.39-28.47L35.39-28.47Q32.06-24.72 27.33-24.72L27.33-24.72ZM38.73-60.80Q33.36-64.02 26.81-64.02L26.81-64.02Q16.55-64.02 9.32-56.27L9.32-56.27Q2.08-48.51 2.08-37.48L2.08-37.48Q2.08-26.49 9.32-18.74L9.32-18.74Q16.55-10.93 26.81-10.93L26.81-10.93Q33.36-10.93 38.73-14.16L38.73-14.16L38.73-12.28L52.52-12.28L52.52-62.72L38.73-62.72L38.73-60.80Z" transform="translate(-28.081114639387582, -55.53818359375) rotate(59.990826751149875, 28.081114639387582, 363.2925815238154)  " fill="rgb(1, 59, 116)" stroke="rgb(1, 59, 116)" stroke-width="0.178" data-glyph-w="95.94945998898115" data-glyph-h="111.0763671875" data-glyph-ascender="89.31914062499999" data-glyph-descender="-21.757226562499998" data-kerning="0"></path><path d="M17.44-42.00L17.44-42.00L17.44-12.28L3.64-12.28L3.64-62.72L17.44-62.72L17.44-60.48Q22.23-64.02 28.37-64.02L28.37-64.02Q35.97-64.02 41.43-58.61L41.43-58.61Q42.42-59.44 43.51-60.17L43.51-60.17Q49.14-64.02 55.95-64.02L55.95-64.02Q65.06-64.02 71.52-57.57L71.52-57.57Q77.97-51.11 77.97-42.00L77.97-42.00L77.97-12.28L64.18-12.28L64.18-42.00Q64.18-45.44 61.78-47.83L61.78-47.83Q59.39-50.23 55.95-50.23L55.95-50.23Q52.57-50.23 50.12-47.83L50.12-47.83Q47.73-45.44 47.73-42.00L47.73-42.00L47.73-12.28L33.94-12.28L33.94-42.00Q33.94-45.44 31.49-47.83L31.49-47.83Q29.10-50.23 25.66-50.23L25.66-50.23Q22.28-50.23 19.88-47.83L19.88-47.83Q17.44-45.44 17.44-42.00Z" transform="translate(-40.807530655012584, -55.53818359375) rotate(75.67222685806604, 40.807530655012584, 363.2925815238154)  " fill="rgb(1, 59, 116)" stroke="rgb(1, 59, 116)" stroke-width="0.178" data-glyph-w="121.40229202023114" data-glyph-h="111.0763671875" data-glyph-ascender="89.31914062499999" data-glyph-descender="-21.757226562499998" data-kerning="0"></path></g></svg>
                  </g>
                </g>
                <g id="shape_7ALEtJ5etT" ref="shape_7ALEtJ5etT" key="shape_7ALEtJ5etT" mask="">
                  <g transform="translate(133.26033341919106,498.677471573223) rotate(0,409.2232592358521,189.22325923585208) scale(1,1)" style="opacity: 1;mix-blend-mode: undefined;" filter="">
                    <!--普通元素-->
                    <svg xmlns="http://www.w3.org/2000/svg" version="1.1" xmlns:xlink="http://www.w3.org/1999/xlink" width="818.4465184717042" height="378.44651847170417" viewBox="0 0 818.4465184717042 378.44651847170417" data-ligature="true" data-parent="shape_7ALEtJ5etT"><g data-role="text" data-width="507.40000000000003" data-height="74" transform="translate(155.52325923585207, 152.22325923585208)"><path d="M36.22-38.50L36.22-38.50Q37.51-38.40 38.55-37.36L38.55-37.36Q39.64-36.27 39.64-34.69L39.64-34.69Q39.64-33.15 38.55-32.01L38.55-32.01Q37.41-30.92 35.87-30.92L35.87-30.92Q34.29-30.92 33.20-32.01L33.20-32.01Q32.06-33.15 32.06-34.69L32.06-34.69Q32.06-40.63 37.06-43.41L37.06-43.41L38.45-42.02Q36.92-40.48 36.22-38.50ZM25.62-38.50L25.62-38.50Q26.96-38.35 27.95-37.36L27.95-37.36Q29.04-36.27 29.04-34.69L29.04-34.69Q29.04-33.15 27.95-32.01L27.95-32.01Q26.81-30.92 25.27-30.92L25.27-30.92Q23.69-30.92 22.60-32.01L22.60-32.01Q21.46-33.15 21.46-34.69L21.46-34.69Q21.46-40.63 26.46-43.41L26.46-43.41L27.85-42.02Q26.31-40.48 25.62-38.50Z" transform="translate(0 55) " fill="#013b74" stroke="#013b74" stroke-width="0.085" data-glyph-w="50.74" data-glyph-h="49.55078125" data-glyph-ascender="43.604687500000004" data-glyph-descender="-5.94609375" data-kerning="0"></path><path d="M17.34 3.91L17.34-12.64Q15.71-9.71 13.73-7.38L13.73-7.38L10.95-9.27Q14.27-18.53 16.35-28.34L16.35-28.34L12.98-28.34L12.98-31.86L17.34-31.86L17.34-40.48L23.39-40.48L23.39-31.86L27.50-31.86L27.50-28.34L23.39-28.34L23.39-24.28Q26.66-21.26 28.89-17.99L28.89-17.99L28.89-38.50L47.67-38.50L47.67 2.63L28.89 2.63L28.89-15.71L25.37-12.39Q24.63-14.37 23.39-16.95L23.39-16.95L23.39 3.91L17.34 3.91ZM1.68 1.93L7.93 3.91Q10.11-3.82 11.30-14.62L11.30-14.62L7.73-15.56Q5.70-6.64 1.68 1.93L1.68 1.93ZM5.00-40.48Q10.21-37.66 12.93-33.99L12.93-33.99L8.57-30.42Q5.45-34.64 2.18-38.60L2.18-38.60L5.00-40.48ZM4.21-29.23Q9.46-26.36 12.14-22.74L12.14-22.74L7.83-19.13Q4.71-23.34 1.39-27.30L1.39-27.30L4.21-29.23ZM34.93-0.89L41.62-0.89L41.62-9.86L34.93-9.86L34.93-0.89ZM34.93-13.43L41.62-13.43L41.62-22.40L34.93-22.40L34.93-13.43ZM34.93-25.96L41.62-25.96L41.62-34.93L34.93-34.93L34.93-25.96Z" transform="translate(50.74 55) " fill="#013b74" stroke="#013b74" stroke-width="0.085" data-glyph-w="50.74" data-glyph-h="49.55078125" data-glyph-ascender="43.604687500000004" data-glyph-descender="-5.94609375" data-kerning="0"></path><path d="M24.18-14.42Q30.13-10.85 32.85-6.99L32.85-6.99L28.29-3.37Q25.22-7.83 21.46-12.34L21.46-12.34L24.18-14.42ZM1.39-0.59L7.14 1.88Q9.66-4.11 10.50-11.84L10.50-11.84L6.94-12.93Q4.51-6.29 1.39-0.59L1.39-0.59ZM40.24 3.42L18.38 3.42Q16.00 3.42 14.42 1.73L14.42 1.73Q12.93 0.10 12.93-2.03L12.93-2.03L12.93-13.78L18.98-13.78L18.98-4.06Q18.98-3.02 19.72-2.33L19.72-2.33Q20.41-1.64 21.36-1.64L21.36-1.64L41.62-1.64L40.24 3.42ZM41.62-13.78Q46.58-8.23 49.35-2.63L49.35-2.63L43.95-0.05Q41.33-6.49 38.45-12.29L38.45-12.29L41.62-13.78ZM40.09-19.77L40.09-23.29L25.22-23.29L29.78-25.72Q27.85-29.14 24.13-32.11L24.13-32.11L21.16-30.47Q23.34-26.96 24.73-23.29L24.73-23.29L8.42-23.29L8.42-19.77L32.41-19.77L28.10-14.27L33.30-11.10L40.09-19.77ZM25.62-35.53L25.62-35.53Q24.18-34.14 22.45-32.65L22.45-32.65Q13.68-25.32 3.22-22.35L3.22-22.35L1.39-25.17Q13.28-30.52 22.74-41.03L22.74-41.03L29.09-39.39Q28.69-38.90 28.29-38.35L28.29-38.35Q36.32-31.91 49.35-27.85L49.35-27.85L45.98-22.30Q34.19-25.87 25.62-35.53Z" transform="translate(101.48 55) " fill="#013b74" stroke="#013b74" stroke-width="0.085" data-glyph-w="50.74" data-glyph-h="49.55078125" data-glyph-ascender="43.604687500000004" data-glyph-descender="-5.94609375" data-kerning="0"></path><path d="M1.39 3.02L6.19 4.41Q7.28 0.10 6.79-5.05L6.79-5.05L3.91-5.50Q3.22-1.64 1.39 3.02L1.39 3.02ZM11.35-5.40Q13.18-1.88 14.22 2.97L14.22 2.97L9.27 3.91Q9.17-0.45 8.52-5.20L8.52-5.20L11.35-5.40ZM16.80-6.05Q19.13-2.48 20.37 1.68L20.37 1.68L15.51 3.12Q15.11-0.84 14.02-5.55L14.02-5.55L16.80-6.05ZM22.25-6.89Q25.27-3.57 26.71 0.15L26.71 0.15L21.95 1.88Q20.91-2.18 19.47-6.19L19.47-6.19L22.25-6.89ZM46.83-13.08L46.83-16.65L26.26-16.65L26.26-13.08L40.63-13.08L32.75 2.43L38.01 4.41L46.83-13.08ZM34.83-26.91Q39.10-23.78 41.37-20.51L41.37-20.51L36.62-17.34Q34.69-21.21 31.96-25.12L31.96-25.12L34.83-26.91ZM3.22-20.91L3.22-38.50L23.93-38.50L23.93-23.88Q30.37-31.71 33.40-41.03L33.40-41.03L39.34-39.39Q39.24-39.10 39.10-38.50L39.10-38.50Q42.91-32.36 49.35-26.31L49.35-26.31L45.83-20.86Q40.38-25.22 37.11-33.94L37.11-33.94Q33.25-26.81 25.67-20.86L25.67-20.86L23.93-22.69L23.93-20.91L16.35-20.91L16.35-17.94L24.68-17.94L24.68-14.42L16.35-14.42L16.35-11.64Q20.91-11.89 24.13-12.14L24.13-12.14L24.92-9.76Q12.49-6.44 2.43-6.54L2.43-6.54L1.39-11.30Q5.65-11.25 10.80-11.45L10.80-11.45L10.80-14.42L2.48-14.42L2.48-17.94L10.80-17.94L10.80-20.91L3.22-20.91ZM18.09-33.55L19.72-32.90L19.72-34.93L16.35-34.93L16.35-28.44Q17.39-31.07 18.09-33.55L18.09-33.55ZM19.72-24.43L19.72-27.80Q18.98-26.66 18.09-25.62L18.09-25.62L16.35-26.71L16.35-24.43L19.72-24.43ZM7.43-33.10L8.67-33.50Q9.76-32.31 10.80-30.77L10.80-30.77L10.80-34.93L7.43-34.93L7.43-33.10ZM10.80-26.31L9.17-25.72Q8.47-28.05 7.43-30.47L7.43-30.47L7.43-24.43L10.80-24.43L10.80-26.31Z" transform="translate(152.22 55) " fill="#013b74" stroke="#013b74" stroke-width="0.085" data-glyph-w="50.74" data-glyph-h="49.55078125" data-glyph-ascender="43.604687500000004" data-glyph-descender="-5.94609375" data-kerning="0"></path><path d="M38.20-36.96L44.15-33.74Q33.64-23.04 16.90-16.05L16.90-16.05Q27.30-16.45 36.72-17.14L36.72-17.14Q39.29-20.66 41.33-24.78L41.33-24.78L47.57-22.55Q35.92 2.03 3.17 4.41L3.17 4.41L1.39 1.88Q22.55-2.03 33.10-12.88L33.10-12.88Q21.06-10.65 7.28-10.41L7.28-10.41L5.30-15.71Q5.80-15.71 6.34-15.76L6.34-15.76Q13.97-17.94 24.58-25.47L24.58-25.47Q15.51-23.73 5.65-23.24L5.65-23.24L3.91-28.54Q4.41-28.54 4.96-28.59L4.96-28.59Q12.24-31.42 21.46-41.03L21.46-41.03L27.95-39.00Q22.69-33.40 13.63-28.84L13.63-28.84Q22.55-29.19 30.08-29.63L30.08-29.63Q34.24-33.05 38.20-36.96L38.20-36.96Z" transform="translate(202.96 55) " fill="#013b74" stroke="#013b74" stroke-width="0.085" data-glyph-w="50.74" data-glyph-h="49.55078125" data-glyph-ascender="43.604687500000004" data-glyph-descender="-5.94609375" data-kerning="0"></path><path d="M14.57-35.83L14.57-35.83Q13.23-35.92 12.19-36.96L12.19-36.96Q11.10-38.05 11.10-39.64L11.10-39.64Q11.10-41.18 12.19-42.32L12.19-42.32Q13.33-43.41 14.87-43.41L14.87-43.41Q16.45-43.41 17.54-42.32L17.54-42.32Q18.68-41.18 18.68-39.64L18.68-39.64Q18.68-33.69 13.68-30.92L13.68-30.92L12.29-32.31Q13.87-33.84 14.57-35.83ZM25.12-35.83L25.12-35.83Q23.83-35.97 22.79-36.96L22.79-36.96Q21.70-38.05 21.70-39.64L21.70-39.64Q21.70-41.18 22.79-42.32L22.79-42.32Q23.93-43.41 25.47-43.41L25.47-43.41Q27.05-43.41 28.14-42.32L28.14-42.32Q29.28-41.18 29.28-39.64L29.28-39.64Q29.28-33.69 24.28-30.92L24.28-30.92L22.89-32.31Q24.43-33.84 25.12-35.83Z" transform="translate(253.70000000000002 55) " fill="#013b74" stroke="#013b74" stroke-width="0.085" data-glyph-w="50.74" data-glyph-h="49.55078125" data-glyph-ascender="43.604687500000004" data-glyph-descender="-5.94609375" data-kerning="0"></path><path d="M48.61-5.40L48.61-8.92L34.78-8.92L34.78-18.19L46.83-18.19L46.83-21.75L34.78-21.75L34.78-31.02L47.67-31.02L47.67-34.54L34.78-34.54L34.78-40.48L28.74-40.48L28.74 3.91L34.78 3.91L34.78-5.40L48.61-5.40ZM15.96-5.40L15.96 3.91L22.05 3.91L22.05-40.48L15.96-40.48L15.96-34.54L3.07-34.54L3.07-31.02L15.96-31.02L15.96-21.75L3.91-21.75L3.91-18.19L15.96-18.19L15.96-8.92L2.18-8.92L2.18-5.40L15.96-5.40Z" transform="translate(304.44 55) " fill="#013b74" stroke="#013b74" stroke-width="0.085" data-glyph-w="50.74" data-glyph-h="49.55078125" data-glyph-ascender="43.604687500000004" data-glyph-descender="-5.94609375" data-kerning="0"></path><path d="M12.39-8.42L12.39-25.82L2.18-25.82L2.18-22.30L6.34-22.30L6.34-8.42Q6.34-2.08 1.39 1.64L1.39 1.64L3.32 4.41Q8.27 3.02 10.90-1.83L10.90-1.83Q14.82 3.42 22.30 3.42L22.30 3.42L47.67 3.42L49.35-2.13L44.84-2.13L48.31-6.99Q41.72-9.56 33.99-11.69L33.99-11.69Q34.64-13.58 34.64-15.91L34.64-15.91L28.54-15.91Q28.54-8.67 15.51-6.09L15.51-6.09L16.70-3.57Q13.82-4.76 12.34-6.74L12.34-6.74Q12.39-7.58 12.39-8.42L12.39-8.42ZM44.50-2.13L24.87-2.13Q20.81-2.13 17.69-3.17L17.69-3.17Q28.34-4.21 32.26-8.67L32.26-8.67Q39.00-5.30 44.50-2.13L44.50-2.13ZM46.78-20.61L16.40-20.61L16.40-10.01L22.50-10.01L22.50-17.10L40.73-17.10L40.73-10.01L46.78-10.01L46.78-20.61ZM5.80-40.48Q10.65-36.67 14.12-32.01L14.12-32.01L9.07-28.49Q6.34-33.45 3.07-38.50L3.07-38.50L5.80-40.48ZM48.61-26.31L34.64-26.31L34.64-28.49L46.68-28.49L46.68-38.50L34.64-38.50L34.64-40.48L28.54-40.48L28.54-38.50L16.35-38.50L16.35-28.49L28.54-28.49L28.54-26.31L14.57-26.31L14.57-22.79L48.61-22.79L48.61-26.31ZM40.63-32.01L34.64-32.01L34.64-34.93L40.63-34.93L40.63-32.01ZM22.45-34.93L28.54-34.93L28.54-32.01L22.45-32.01L22.45-34.93Z" transform="translate(355.18 55) " fill="#013b74" stroke="#013b74" stroke-width="0.085" data-glyph-w="50.74" data-glyph-h="49.55078125" data-glyph-ascender="43.604687500000004" data-glyph-descender="-5.94609375" data-kerning="0"></path><path d="M7.93-41.03L13.87-39.39Q13.63-38.55 13.03-37.26L13.03-37.26L25.37-37.26L25.37-33.74L15.41-33.74Q18.98-31.37 21.11-28.89L21.11-28.89L16.25-25.17Q14.12-28.74 11.64-32.36L11.64-32.36L13.28-33.74L11.10-33.74Q8.03-28.94 3.77-26.36L3.77-26.36L1.39-28.59Q5.65-33.94 7.93-41.03L7.93-41.03ZM31.02-16.50Q34.83-13.58 37.71-9.61L37.71-9.61L37.71-21.06L29.04-21.06L29.04-15.26L31.02-16.50ZM37.71-2.03L37.71-8.18L33.55-4.96Q31.71-8.72 29.04-13.23L29.04-13.23L29.04-12.19Q29.04-3.91 24.97 1.09L24.97 1.09Q22.94 3.57 20.91 4.41L20.91 4.41L18.68 1.88Q22.99-2.28 22.99-12.59L22.99-12.59L22.99-24.63L43.80-24.63L43.80-4.06Q43.80-1.64 46.18-1.64L46.18-1.64L49.35-1.64L47.97 3.42L43.21 3.42Q40.83 3.42 39.24 1.73L39.24 1.73Q37.71 0.10 37.71-2.03L37.71-2.03ZM15.06-7.18L15.06-20.56L21.16-20.56L21.16-24.08L2.92-24.08L2.92-20.56L9.02-20.56L9.02-5.40Q5.35-4.36 2.18-3.57L2.18-3.57L4.36 1.88Q14.22-0.99 22.05-5.90L22.05-5.90L20.51-8.87Q18.33-8.18 15.06-7.18L15.06-7.18ZM48.61-33.74L48.61-37.26L34.64-37.26Q35.23-38.55 35.48-39.39L35.48-39.39L29.58-41.03Q27.25-33.94 23.04-28.59L23.04-28.59L25.37-26.36Q29.63-28.94 32.70-33.74L32.70-33.74L36.17-33.74L34.54-32.36Q37.01-28.74 39.15-25.17L39.15-25.17L44.00-28.89Q41.87-31.37 38.30-33.74L38.30-33.74L48.61-33.74Z" transform="translate(405.92 55) " fill="#013b74" stroke="#013b74" stroke-width="0.085" data-glyph-w="50.74" data-glyph-h="49.55078125" data-glyph-ascender="43.604687500000004" data-glyph-descender="-5.94609375" data-kerning="0"></path><path d="M11.10-19.42L11.10-25.42Q7.43-21.85 3.42-19.62L3.42-19.62L1.39-22.30Q5.80-26.36 9.41-32.16L9.41-32.16L2.53-32.16L2.53-35.68L11.10-35.68L11.10-40.48L17.19-40.48L17.19-35.68L23.88-35.68L23.88-32.16L17.19-32.16L17.19-30.13L18.14-31.07Q21.65-29.14 24.58-26.46L24.58-26.46L19.97-22.00Q18.78-23.98 17.19-26.51L17.19-26.51L17.19-21.36L22.40-20.07Q22.05-19.37 21.26-18.28L21.26-18.28L43.21-18.28L43.21-14.77Q39.15-7.38 30.08-2.33L30.08-2.33Q20.27 3.17 7.04 4.41L7.04 4.41L6.00 1.49Q14.91-0.45 21.06-3.22L21.06-3.22Q18.28-6.05 15.31-8.82L15.31-8.82L17.69-11.50Q22.79-9.37 26.61-6.24L26.61-6.24Q31.81-9.61 36.02-14.77L36.02-14.77L18.43-14.77Q12.49-8.18 4.56-5.10L4.56-5.10L2.68-7.73Q9.22-12.24 14.72-19.42L14.72-19.42L11.10-19.42ZM49.35-25.02L46.38-19.87Q42.07-22.45 38.80-27.55L38.80-27.55L38.80-19.42L32.75-19.42L32.75-25.77Q28.94-21.95 24.68-19.62L24.68-19.62L22.69-22.30Q27.25-26.41 30.77-32.16L30.77-32.16L25.37-32.16L25.37-35.68L32.75-35.68L32.75-40.48L38.80-40.48L38.80-35.68L48.21-35.68L48.21-32.16L40.58-32.16Q44.89-27.35 49.35-25.02L49.35-25.02Z" transform="translate(456.66 55) " fill="#013b74" stroke="#013b74" stroke-width="0.085" data-glyph-w="50.74" data-glyph-h="49.55078125" data-glyph-ascender="43.604687500000004" data-glyph-descender="-5.94609375" data-kerning="0"></path></g></svg>
                  </g>
                </g>
      </svg>